<svg width="250" height="117" viewBox="0 0 250 117" fill="none" xmlns="http://www.w3.org/2000/svg">
<g filter="url(#filter0_d_758_248)">
<rect x="10" y="6" width="230" height="60" rx="15" fill="#EDC068" shape-rendering="crispEdges"/>
<path d="M88.8849 33.3622H86.2287C86.1529 32.9266 86.0133 32.5407 85.8097 32.2045C85.6061 31.8636 85.3527 31.5748 85.0497 31.3381C84.7467 31.1013 84.401 30.9238 84.0128 30.8054C83.6293 30.6823 83.215 30.6207 82.7699 30.6207C81.9792 30.6207 81.2784 30.8196 80.6676 31.2173C80.0568 31.6103 79.5786 32.188 79.233 32.9503C78.8873 33.7079 78.7145 34.6335 78.7145 35.7273C78.7145 36.84 78.8873 37.7775 79.233 38.5398C79.5833 39.2973 80.0616 39.8703 80.6676 40.2585C81.2784 40.642 81.9768 40.8338 82.7628 40.8338C83.1984 40.8338 83.6056 40.777 83.9844 40.6634C84.3679 40.545 84.7112 40.3722 85.0142 40.1449C85.322 39.9176 85.58 39.6383 85.7884 39.3068C86.0014 38.9754 86.1482 38.5966 86.2287 38.1705L88.8849 38.1847C88.7855 38.8759 88.5701 39.5246 88.2386 40.1307C87.9119 40.7367 87.4834 41.2718 86.9531 41.7358C86.4228 42.1951 85.8026 42.5549 85.0923 42.8153C84.3821 43.071 83.5938 43.1989 82.7273 43.1989C81.4489 43.1989 80.3078 42.9029 79.304 42.3111C78.3002 41.7192 77.5095 40.8646 76.9318 39.7472C76.3542 38.6297 76.0653 37.2898 76.0653 35.7273C76.0653 34.16 76.3565 32.8201 76.9389 31.7074C77.5213 30.59 78.3144 29.7353 79.3182 29.1435C80.322 28.5516 81.4583 28.2557 82.7273 28.2557C83.5369 28.2557 84.2898 28.3693 84.9858 28.5966C85.6818 28.8239 86.3021 29.1577 86.8466 29.598C87.3911 30.0336 87.8385 30.5687 88.1889 31.2031C88.544 31.8329 88.776 32.5526 88.8849 33.3622ZM94.3235 43.2202C93.6322 43.2202 93.0096 43.0971 92.4556 42.8509C91.9064 42.5999 91.4708 42.2306 91.1488 41.7429C90.8316 41.2552 90.6729 40.6539 90.6729 39.9389C90.6729 39.3234 90.7866 38.8144 91.0138 38.4119C91.2411 38.0095 91.5513 37.6875 91.9442 37.446C92.3372 37.2045 92.7799 37.0223 93.2724 36.8991C93.7695 36.7713 94.2833 36.679 94.8136 36.6222C95.4528 36.5559 95.9712 36.4967 96.369 36.4446C96.7667 36.3878 97.0555 36.3026 97.2354 36.1889C97.4201 36.0705 97.5124 35.8883 97.5124 35.642V35.5994C97.5124 35.0644 97.3538 34.6501 97.0366 34.3565C96.7193 34.063 96.2624 33.9162 95.6658 33.9162C95.0361 33.9162 94.5366 34.0535 94.1673 34.3281C93.8027 34.6027 93.5565 34.9271 93.4286 35.3011L91.0281 34.9602C91.2174 34.2973 91.5299 33.7434 91.9656 33.2983C92.4012 32.8485 92.9338 32.5123 93.5636 32.2898C94.1933 32.0625 94.8893 31.9489 95.6516 31.9489C96.1772 31.9489 96.7004 32.0104 97.2212 32.1335C97.7421 32.2566 98.2179 32.4602 98.6488 32.7443C99.0797 33.0237 99.4253 33.4048 99.6857 33.8878C99.9509 34.3707 100.083 34.9744 100.083 35.6989V43H97.6119V41.5014H97.5266C97.3704 41.8045 97.1502 42.0885 96.8661 42.3537C96.5868 42.6141 96.234 42.8248 95.8079 42.9858C95.3865 43.142 94.8917 43.2202 94.3235 43.2202ZM94.9911 41.331C95.5072 41.331 95.9547 41.2292 96.3335 41.0256C96.7122 40.8172 97.0034 40.5426 97.207 40.2017C97.4154 39.8608 97.5195 39.4891 97.5195 39.0866V37.8011C97.439 37.8674 97.3017 37.929 97.1076 37.9858C96.9182 38.0426 96.7051 38.0923 96.4684 38.1349C96.2317 38.1776 95.9973 38.2154 95.7653 38.2486C95.5333 38.2817 95.332 38.3101 95.1616 38.3338C94.7781 38.3859 94.4348 38.4711 94.1317 38.5895C93.8287 38.7079 93.5896 38.8736 93.4144 39.0866C93.2392 39.295 93.1516 39.5649 93.1516 39.8963C93.1516 40.3698 93.3245 40.7273 93.6701 40.9688C94.0157 41.2102 94.4561 41.331 94.9911 41.331ZM105.24 36.608V43H102.669V32.0909H105.126V33.9446H105.254C105.505 33.3338 105.905 32.8485 106.454 32.4886C107.008 32.1288 107.692 31.9489 108.507 31.9489C109.26 31.9489 109.915 32.1098 110.474 32.4318C111.038 32.7538 111.473 33.2202 111.781 33.831C112.093 34.4418 112.247 35.1828 112.243 36.054V43H109.672V36.4517C109.672 35.7225 109.482 35.152 109.103 34.7401C108.729 34.3281 108.211 34.1222 107.548 34.1222C107.098 34.1222 106.698 34.2216 106.348 34.4205C106.002 34.6146 105.73 34.8963 105.531 35.2656C105.337 35.6349 105.24 36.0824 105.24 36.608ZM117.037 28.4545V29.9034C117.037 30.3201 116.956 30.7533 116.795 31.2031C116.639 31.6482 116.423 32.0743 116.149 32.4815C115.874 32.884 115.562 33.2296 115.211 33.5185L114.018 32.7443C114.279 32.3513 114.506 31.9276 114.7 31.473C114.894 31.0137 114.991 30.4953 114.991 29.9176V28.4545H117.037ZM124.933 32.0909V34.0795H118.661V32.0909H124.933ZM120.21 29.4773H122.781V39.7188C122.781 40.0644 122.833 40.3295 122.937 40.5142C123.046 40.6941 123.188 40.8172 123.363 40.8835C123.538 40.9498 123.732 40.983 123.945 40.983C124.106 40.983 124.253 40.9711 124.386 40.9474C124.523 40.9238 124.627 40.9025 124.698 40.8835L125.131 42.8935C124.994 42.9408 124.798 42.9929 124.542 43.0497C124.291 43.1065 123.983 43.1397 123.619 43.1491C122.975 43.1681 122.395 43.071 121.879 42.858C121.362 42.6402 120.953 42.304 120.65 41.8494C120.352 41.3949 120.205 40.8267 120.21 40.1449V29.4773ZM135.218 43L131.113 28.4545H133.947L136.568 39.1435H136.703L139.501 28.4545H142.079L144.885 39.1506H145.012L147.633 28.4545H150.467L146.362 43H143.762L140.85 32.794H140.737L137.818 43H135.218ZM154.206 43.2202C153.515 43.2202 152.892 43.0971 152.338 42.8509C151.789 42.5999 151.354 42.2306 151.032 41.7429C150.714 41.2552 150.556 40.6539 150.556 39.9389C150.556 39.3234 150.669 38.8144 150.897 38.4119C151.124 38.0095 151.434 37.6875 151.827 37.446C152.22 37.2045 152.663 37.0223 153.155 36.8991C153.652 36.7713 154.166 36.679 154.696 36.6222C155.336 36.5559 155.854 36.4967 156.252 36.4446C156.65 36.3878 156.938 36.3026 157.118 36.1889C157.303 36.0705 157.395 35.8883 157.395 35.642V35.5994C157.395 35.0644 157.237 34.6501 156.919 34.3565C156.602 34.063 156.145 33.9162 155.549 33.9162C154.919 33.9162 154.419 34.0535 154.05 34.3281C153.685 34.6027 153.439 34.9271 153.311 35.3011L150.911 34.9602C151.1 34.2973 151.413 33.7434 151.848 33.2983C152.284 32.8485 152.817 32.5123 153.446 32.2898C154.076 32.0625 154.772 31.9489 155.534 31.9489C156.06 31.9489 156.583 32.0104 157.104 32.1335C157.625 32.2566 158.101 32.4602 158.532 32.7443C158.962 33.0237 159.308 33.4048 159.569 33.8878C159.834 34.3707 159.966 34.9744 159.966 35.6989V43H157.495V41.5014H157.409C157.253 41.8045 157.033 42.0885 156.749 42.3537C156.47 42.6141 156.117 42.8248 155.691 42.9858C155.269 43.142 154.775 43.2202 154.206 43.2202ZM154.874 41.331C155.39 41.331 155.837 41.2292 156.216 41.0256C156.595 40.8172 156.886 40.5426 157.09 40.2017C157.298 39.8608 157.402 39.4891 157.402 39.0866V37.8011C157.322 37.8674 157.185 37.929 156.99 37.9858C156.801 38.0426 156.588 38.0923 156.351 38.1349C156.114 38.1776 155.88 38.2154 155.648 38.2486C155.416 38.2817 155.215 38.3101 155.044 38.3338C154.661 38.3859 154.318 38.4711 154.015 38.5895C153.712 38.7079 153.472 38.8736 153.297 39.0866C153.122 39.295 153.034 39.5649 153.034 39.8963C153.034 40.3698 153.207 40.7273 153.553 40.9688C153.899 41.2102 154.339 41.331 154.874 41.331ZM162.551 43V32.0909H165.123V43H162.551ZM163.844 30.5426C163.437 30.5426 163.087 30.4077 162.793 30.1378C162.499 29.8632 162.353 29.5341 162.353 29.1506C162.353 28.7623 162.499 28.4332 162.793 28.1634C163.087 27.8887 163.437 27.7514 163.844 27.7514C164.256 27.7514 164.606 27.8887 164.895 28.1634C165.189 28.4332 165.336 28.7623 165.336 29.1506C165.336 29.5341 165.189 29.8632 164.895 30.1378C164.606 30.4077 164.256 30.5426 163.844 30.5426ZM173.214 32.0909V34.0795H166.942V32.0909H173.214ZM168.491 29.4773H171.062V39.7188C171.062 40.0644 171.114 40.3295 171.218 40.5142C171.327 40.6941 171.469 40.8172 171.644 40.8835C171.819 40.9498 172.013 40.983 172.227 40.983C172.388 40.983 172.534 40.9711 172.667 40.9474C172.804 40.9238 172.908 40.9025 172.979 40.8835L173.413 42.8935C173.275 42.9408 173.079 42.9929 172.823 43.0497C172.572 43.1065 172.264 43.1397 171.9 43.1491C171.256 43.1681 170.676 43.071 170.16 42.858C169.644 42.6402 169.234 42.304 168.931 41.8494C168.633 41.3949 168.486 40.8267 168.491 40.1449V29.4773Z" fill="white"/>
</g>
<circle cx="125" cy="82" r="35" fill="#EDC068"/>
<circle cx="125.5" cy="81.5" r="28.5" fill="url(#paint0_linear_758_248)"/>
<path d="M133.702 67.2637C133.803 67.3125 133.89 67.3937 133.944 67.5014C133.947 67.5065 133.949 67.5116 133.951 67.5169C133.957 67.5282 133.961 67.5398 133.966 67.5515C133.99 67.616 134.001 67.6822 134 67.7474V71.421C134 71.7117 133.763 71.9473 133.47 71.9473C133.178 71.9473 132.941 71.7117 132.941 71.421V68.5884L130.531 69.7865C130.269 69.9166 129.951 69.8112 129.821 69.5511C129.69 69.2912 129.796 68.975 130.057 68.845L132.287 67.7369L130.057 66.6287C129.796 66.4986 129.69 66.1825 129.821 65.9226C129.951 65.6626 130.269 65.5573 130.531 65.6871L133.702 67.2637ZM134 78.2528C134.001 78.3299 133.986 78.4087 133.952 78.4833C133.925 78.5393 133.89 78.5906 133.846 78.6345C133.801 78.6785 133.754 78.7116 133.702 78.7365L130.531 80.313C130.269 80.443 129.951 80.3376 129.821 80.0777C129.69 79.8176 129.796 79.5015 130.057 79.3716L132.287 78.2634L130.057 77.1551C129.796 77.0252 129.69 76.7091 129.821 76.449C129.951 76.1891 130.269 76.0837 130.531 76.2137L132.941 77.4117V74.5791C132.941 74.2885 133.178 74.0529 133.47 74.0529C133.763 74.0529 134 74.2885 134 74.5791L134 78.2528ZM117.713 78.2633L119.943 79.3716C120.204 79.5014 120.31 79.8176 120.18 80.0777C120.049 80.3376 119.731 80.443 119.469 80.3129L116.298 78.7365C116.197 78.6875 116.11 78.6064 116.056 78.4987C116.053 78.4936 116.051 78.4883 116.049 78.4832C116.043 78.472 116.038 78.4603 116.034 78.4487C116.01 78.3842 115.999 78.3179 116 78.2527V74.579C116 74.2884 116.237 74.0528 116.53 74.0528C116.822 74.0528 117.059 74.2884 117.059 74.579V77.4116L119.469 76.2136C119.731 76.0836 120.049 76.189 120.179 76.4489C120.31 76.709 120.204 77.0251 119.943 77.155L117.713 78.2633ZM117.059 68.5884V71.421C117.059 71.7118 116.822 71.9474 116.53 71.9474C116.237 71.9474 116 71.7118 116 71.421V67.7475C115.999 67.6701 116.014 67.5915 116.049 67.517C116.074 67.4609 116.11 67.4096 116.154 67.3658C116.199 67.3217 116.246 67.2886 116.298 67.2637L119.469 65.6871C119.731 65.5572 120.049 65.6626 120.179 65.9225C120.31 66.1824 120.204 66.4986 119.943 66.6286L117.713 67.7369L119.943 68.8449C120.204 68.975 120.31 69.2911 120.179 69.551C120.049 69.8111 119.731 69.9165 119.469 69.7865L117.059 68.5884ZM124.754 63.0603C124.827 63.0217 124.911 63 125 63C125.089 63 125.173 63.0217 125.246 63.0603L128.413 64.6345C128.675 64.7645 128.781 65.0807 128.65 65.3406C128.519 65.6005 128.201 65.7059 127.94 65.576L125.529 64.3779V67.2105C125.529 67.5011 125.292 67.7368 125 67.7368C124.708 67.7368 124.471 67.5011 124.471 67.2105V64.3779L122.06 65.576C121.799 65.7059 121.481 65.6005 121.35 65.3406C121.219 65.0807 121.325 64.7645 121.587 64.6345L124.754 63.0603ZM125.246 82.9397C125.173 82.9781 125.089 83 125 83C124.911 83 124.827 82.9781 124.754 82.9397L121.587 81.3655C121.325 81.2355 121.219 80.9193 121.35 80.6594C121.481 80.3993 121.799 80.2939 122.06 80.424L124.47 81.6221V78.7895C124.47 78.4988 124.707 78.2632 125 78.2632C125.292 78.2632 125.529 78.4988 125.529 78.7895V81.6221L127.94 80.424C128.201 80.2939 128.519 80.3993 128.65 80.6594C128.78 80.9193 128.674 81.2355 128.413 81.3655L125.246 82.9397ZM125.529 72.2728V75.1054C125.529 75.396 125.292 75.6318 125 75.6318C124.707 75.6318 124.471 75.396 124.471 75.1054V72.2728L121.587 70.8392C121.325 70.7093 121.219 70.3932 121.35 70.1331C121.481 69.8732 121.799 69.7678 122.06 69.8979L125 71.3591L127.94 69.8979C128.201 69.7678 128.519 69.8732 128.65 70.1331C128.78 70.3932 128.674 70.7093 128.413 70.8392L125.529 72.2728Z" fill="#EDC068"/>
<path d="M116.642 98H114.392L118.489 86.3636H121.091L125.193 98H122.943L119.835 88.75H119.744L116.642 98ZM116.716 93.4375H122.852V95.1307H116.716V93.4375ZM126.726 98V86.3636H131.089C131.983 86.3636 132.733 86.5189 133.339 86.8295C133.949 87.1402 134.41 87.5758 134.72 88.1364C135.035 88.6932 135.192 89.3428 135.192 90.0852C135.192 90.8314 135.033 91.4792 134.714 92.0284C134.4 92.5739 133.936 92.9962 133.322 93.2955C132.709 93.5909 131.955 93.7386 131.061 93.7386H127.953V91.9886H130.777C131.3 91.9886 131.728 91.9167 132.061 91.7727C132.394 91.625 132.641 91.411 132.8 91.1307C132.963 90.8466 133.044 90.4981 133.044 90.0852C133.044 89.6723 132.963 89.3201 132.8 89.0284C132.637 88.733 132.389 88.5095 132.055 88.358C131.722 88.2027 131.292 88.125 130.766 88.125H128.834V98H126.726ZM132.737 92.7273L135.618 98H133.266L130.436 92.7273H132.737Z" fill="#EDC068"/>
<defs>
<filter id="filter0_d_758_248" x="0" y="0" width="250" height="80" filterUnits="userSpaceOnUse" color-interpolation-filters="sRGB">
<feFlood flood-opacity="0" result="BackgroundImageFix"/>
<feColorMatrix in="SourceAlpha" type="matrix" values="0 0 0 0 0 0 0 0 0 0 0 0 0 0 0 0 0 0 127 0" result="hardAlpha"/>
<feOffset dy="4"/>
<feGaussianBlur stdDeviation="5"/>
<feComposite in2="hardAlpha" operator="out"/>
<feColorMatrix type="matrix" values="0 0 0 0 0 0 0 0 0 0 0 0 0 0 0 0 0 0 0.15 0"/>
<feBlend mode="normal" in2="BackgroundImageFix" result="effect1_dropShadow_758_248"/>
<feBlend mode="normal" in="SourceGraphic" in2="effect1_dropShadow_758_248" result="shape"/>
</filter>
<linearGradient id="paint0_linear_758_248" x1="93.7115" y1="81.5" x2="158.385" y2="80.4038" gradientUnits="userSpaceOnUse">
<stop stop-color="#3F3106"/>
<stop offset="1" stop-color="#847546"/>
</linearGradient>
</defs>
</svg>
