<svg width="250" height="117" viewBox="0 0 250 117" fill="none" xmlns="http://www.w3.org/2000/svg">
<g filter="url(#filter0_d_738_222)">
<rect x="10" y="6" width="230" height="60" rx="15" fill="#EDC068" shape-rendering="crispEdges"/>
<path d="M88.8849 33.3622H86.2287C86.1529 32.9266 86.0133 32.5407 85.8097 32.2045C85.6061 31.8636 85.3527 31.5748 85.0497 31.3381C84.7467 31.1013 84.401 30.9238 84.0128 30.8054C83.6293 30.6823 83.215 30.6207 82.7699 30.6207C81.9792 30.6207 81.2784 30.8196 80.6676 31.2173C80.0568 31.6103 79.5786 32.188 79.233 32.9503C78.8873 33.7079 78.7145 34.6335 78.7145 35.7273C78.7145 36.84 78.8873 37.7775 79.233 38.5398C79.5833 39.2973 80.0616 39.8703 80.6676 40.2585C81.2784 40.642 81.9768 40.8338 82.7628 40.8338C83.1984 40.8338 83.6056 40.777 83.9844 40.6634C84.3679 40.545 84.7112 40.3722 85.0142 40.1449C85.322 39.9176 85.58 39.6383 85.7884 39.3068C86.0014 38.9754 86.1482 38.5966 86.2287 38.1705L88.8849 38.1847C88.7855 38.8759 88.5701 39.5246 88.2386 40.1307C87.9119 40.7367 87.4834 41.2718 86.9531 41.7358C86.4228 42.1951 85.8026 42.5549 85.0923 42.8153C84.3821 43.071 83.5938 43.1989 82.7273 43.1989C81.4489 43.1989 80.3078 42.9029 79.304 42.3111C78.3002 41.7192 77.5095 40.8646 76.9318 39.7472C76.3542 38.6297 76.0653 37.2898 76.0653 35.7273C76.0653 34.16 76.3565 32.8201 76.9389 31.7074C77.5213 30.59 78.3144 29.7353 79.3182 29.1435C80.322 28.5516 81.4583 28.2557 82.7273 28.2557C83.5369 28.2557 84.2898 28.3693 84.9858 28.5966C85.6818 28.8239 86.3021 29.1577 86.8466 29.598C87.3911 30.0336 87.8385 30.5687 88.1889 31.2031C88.544 31.8329 88.776 32.5526 88.8849 33.3622ZM94.3235 43.2202C93.6322 43.2202 93.0096 43.0971 92.4556 42.8509C91.9064 42.5999 91.4708 42.2306 91.1488 41.7429C90.8316 41.2552 90.6729 40.6539 90.6729 39.9389C90.6729 39.3234 90.7866 38.8144 91.0138 38.4119C91.2411 38.0095 91.5513 37.6875 91.9442 37.446C92.3372 37.2045 92.7799 37.0223 93.2724 36.8991C93.7695 36.7713 94.2833 36.679 94.8136 36.6222C95.4528 36.5559 95.9712 36.4967 96.369 36.4446C96.7667 36.3878 97.0555 36.3026 97.2354 36.1889C97.4201 36.0705 97.5124 35.8883 97.5124 35.642V35.5994C97.5124 35.0644 97.3538 34.6501 97.0366 34.3565C96.7193 34.063 96.2624 33.9162 95.6658 33.9162C95.0361 33.9162 94.5366 34.0535 94.1673 34.3281C93.8027 34.6027 93.5565 34.9271 93.4286 35.3011L91.0281 34.9602C91.2174 34.2973 91.5299 33.7434 91.9656 33.2983C92.4012 32.8485 92.9338 32.5123 93.5636 32.2898C94.1933 32.0625 94.8893 31.9489 95.6516 31.9489C96.1772 31.9489 96.7004 32.0104 97.2212 32.1335C97.7421 32.2566 98.2179 32.4602 98.6488 32.7443C99.0797 33.0237 99.4253 33.4048 99.6857 33.8878C99.9509 34.3707 100.083 34.9744 100.083 35.6989V43H97.6119V41.5014H97.5266C97.3704 41.8045 97.1502 42.0885 96.8661 42.3537C96.5868 42.6141 96.234 42.8248 95.8079 42.9858C95.3865 43.142 94.8917 43.2202 94.3235 43.2202ZM94.9911 41.331C95.5072 41.331 95.9547 41.2292 96.3335 41.0256C96.7122 40.8172 97.0034 40.5426 97.207 40.2017C97.4154 39.8608 97.5195 39.4891 97.5195 39.0866V37.8011C97.439 37.8674 97.3017 37.929 97.1076 37.9858C96.9182 38.0426 96.7051 38.0923 96.4684 38.1349C96.2317 38.1776 95.9973 38.2154 95.7653 38.2486C95.5333 38.2817 95.332 38.3101 95.1616 38.3338C94.7781 38.3859 94.4348 38.4711 94.1317 38.5895C93.8287 38.7079 93.5896 38.8736 93.4144 39.0866C93.2392 39.295 93.1516 39.5649 93.1516 39.8963C93.1516 40.3698 93.3245 40.7273 93.6701 40.9688C94.0157 41.2102 94.4561 41.331 94.9911 41.331ZM105.24 36.608V43H102.669V32.0909H105.126V33.9446H105.254C105.505 33.3338 105.905 32.8485 106.454 32.4886C107.008 32.1288 107.692 31.9489 108.507 31.9489C109.26 31.9489 109.915 32.1098 110.474 32.4318C111.038 32.7538 111.473 33.2202 111.781 33.831C112.093 34.4418 112.247 35.1828 112.243 36.054V43H109.672V36.4517C109.672 35.7225 109.482 35.152 109.103 34.7401C108.729 34.3281 108.211 34.1222 107.548 34.1222C107.098 34.1222 106.698 34.2216 106.348 34.4205C106.002 34.6146 105.73 34.8963 105.531 35.2656C105.337 35.6349 105.24 36.0824 105.24 36.608ZM117.037 28.4545V29.9034C117.037 30.3201 116.956 30.7533 116.795 31.2031C116.639 31.6482 116.423 32.0743 116.149 32.4815C115.874 32.884 115.562 33.2296 115.211 33.5185L114.018 32.7443C114.279 32.3513 114.506 31.9276 114.7 31.473C114.894 31.0137 114.991 30.4953 114.991 29.9176V28.4545H117.037ZM124.933 32.0909V34.0795H118.661V32.0909H124.933ZM120.21 29.4773H122.781V39.7188C122.781 40.0644 122.833 40.3295 122.937 40.5142C123.046 40.6941 123.188 40.8172 123.363 40.8835C123.538 40.9498 123.732 40.983 123.945 40.983C124.106 40.983 124.253 40.9711 124.386 40.9474C124.523 40.9238 124.627 40.9025 124.698 40.8835L125.131 42.8935C124.994 42.9408 124.798 42.9929 124.542 43.0497C124.291 43.1065 123.983 43.1397 123.619 43.1491C122.975 43.1681 122.395 43.071 121.879 42.858C121.362 42.6402 120.953 42.304 120.65 41.8494C120.352 41.3949 120.205 40.8267 120.21 40.1449V29.4773ZM135.218 43L131.113 28.4545H133.947L136.568 39.1435H136.703L139.501 28.4545H142.079L144.885 39.1506H145.012L147.633 28.4545H150.467L146.362 43H143.762L140.85 32.794H140.737L137.818 43H135.218ZM154.206 43.2202C153.515 43.2202 152.892 43.0971 152.338 42.8509C151.789 42.5999 151.354 42.2306 151.032 41.7429C150.714 41.2552 150.556 40.6539 150.556 39.9389C150.556 39.3234 150.669 38.8144 150.897 38.4119C151.124 38.0095 151.434 37.6875 151.827 37.446C152.22 37.2045 152.663 37.0223 153.155 36.8991C153.652 36.7713 154.166 36.679 154.696 36.6222C155.336 36.5559 155.854 36.4967 156.252 36.4446C156.65 36.3878 156.938 36.3026 157.118 36.1889C157.303 36.0705 157.395 35.8883 157.395 35.642V35.5994C157.395 35.0644 157.237 34.6501 156.919 34.3565C156.602 34.063 156.145 33.9162 155.549 33.9162C154.919 33.9162 154.419 34.0535 154.05 34.3281C153.685 34.6027 153.439 34.9271 153.311 35.3011L150.911 34.9602C151.1 34.2973 151.413 33.7434 151.848 33.2983C152.284 32.8485 152.817 32.5123 153.446 32.2898C154.076 32.0625 154.772 31.9489 155.534 31.9489C156.06 31.9489 156.583 32.0104 157.104 32.1335C157.625 32.2566 158.101 32.4602 158.532 32.7443C158.962 33.0237 159.308 33.4048 159.569 33.8878C159.834 34.3707 159.966 34.9744 159.966 35.6989V43H157.495V41.5014H157.409C157.253 41.8045 157.033 42.0885 156.749 42.3537C156.47 42.6141 156.117 42.8248 155.691 42.9858C155.269 43.142 154.775 43.2202 154.206 43.2202ZM154.874 41.331C155.39 41.331 155.837 41.2292 156.216 41.0256C156.595 40.8172 156.886 40.5426 157.09 40.2017C157.298 39.8608 157.402 39.4891 157.402 39.0866V37.8011C157.322 37.8674 157.185 37.929 156.99 37.9858C156.801 38.0426 156.588 38.0923 156.351 38.1349C156.114 38.1776 155.88 38.2154 155.648 38.2486C155.416 38.2817 155.215 38.3101 155.044 38.3338C154.661 38.3859 154.318 38.4711 154.015 38.5895C153.712 38.7079 153.472 38.8736 153.297 39.0866C153.122 39.295 153.034 39.5649 153.034 39.8963C153.034 40.3698 153.207 40.7273 153.553 40.9688C153.899 41.2102 154.339 41.331 154.874 41.331ZM162.551 43V32.0909H165.123V43H162.551ZM163.844 30.5426C163.437 30.5426 163.087 30.4077 162.793 30.1378C162.499 29.8632 162.353 29.5341 162.353 29.1506C162.353 28.7623 162.499 28.4332 162.793 28.1634C163.087 27.8887 163.437 27.7514 163.844 27.7514C164.256 27.7514 164.606 27.8887 164.895 28.1634C165.189 28.4332 165.336 28.7623 165.336 29.1506C165.336 29.5341 165.189 29.8632 164.895 30.1378C164.606 30.4077 164.256 30.5426 163.844 30.5426ZM173.214 32.0909V34.0795H166.942V32.0909H173.214ZM168.491 29.4773H171.062V39.7188C171.062 40.0644 171.114 40.3295 171.218 40.5142C171.327 40.6941 171.469 40.8172 171.644 40.8835C171.819 40.9498 172.013 40.983 172.227 40.983C172.388 40.983 172.534 40.9711 172.667 40.9474C172.804 40.9238 172.908 40.9025 172.979 40.8835L173.413 42.8935C173.275 42.9408 173.079 42.9929 172.823 43.0497C172.572 43.1065 172.264 43.1397 171.9 43.1491C171.256 43.1681 170.676 43.071 170.16 42.858C169.644 42.6402 169.234 42.304 168.931 41.8494C168.633 41.3949 168.486 40.8267 168.491 40.1449V29.4773Z" fill="white"/>
</g>
<circle cx="125" cy="82" r="35" fill="#EDC068"/>
<circle cx="125" cy="82" r="26" fill="url(#paint0_linear_738_222)"/>
<path d="M136.603 74.756C136.738 74.8219 136.853 74.9316 136.925 75.0769C136.929 75.0838 136.932 75.0907 136.935 75.0978C136.942 75.1131 136.949 75.1288 136.955 75.1445C136.987 75.2315 137.002 75.321 137 75.409V80.3683C137 80.7608 136.684 81.0789 136.294 81.0789C135.904 81.0789 135.588 80.7608 135.588 80.3683V76.5443L132.374 78.1618C132.026 78.3374 131.602 78.1951 131.427 77.844C131.253 77.4931 131.394 77.0663 131.743 76.8907L134.716 75.3948L131.743 73.8987C131.394 73.7231 131.253 73.2964 131.427 72.9455C131.602 72.5946 132.026 72.4523 132.374 72.6276L136.603 74.756ZM137 89.5912C137.002 89.6954 136.981 89.8018 136.935 89.9024C136.901 89.978 136.853 90.0473 136.794 90.1065C136.735 90.166 136.672 90.2107 136.603 90.2443L132.374 92.3725C132.026 92.5481 131.602 92.4058 131.427 92.0549C131.253 91.7038 131.394 91.277 131.743 91.1017L134.716 89.6055L131.743 88.1094C131.394 87.9341 131.253 87.5073 131.427 87.1561C131.602 86.8052 132.026 86.663 132.374 86.8386L135.588 88.4558V84.6318C135.588 84.2395 135.904 83.9214 136.294 83.9214C136.684 83.9214 137 84.2395 137 84.6318L137 89.5912ZM115.284 89.6055L118.257 91.1016C118.606 91.277 118.747 91.7037 118.573 92.0549C118.398 92.4058 117.974 92.548 117.626 92.3725L113.397 90.2442C113.262 90.1781 113.147 90.0687 113.075 89.9233C113.071 89.9164 113.068 89.9093 113.065 89.9024C113.058 89.8871 113.051 89.8714 113.045 89.8557C113.013 89.7687 112.998 89.6792 113 89.5912V84.6317C113 84.2394 113.316 83.9213 113.706 83.9213C114.096 83.9213 114.412 84.2394 114.412 84.6317V88.4557L117.626 86.8384C117.974 86.6628 118.398 86.8051 118.573 87.156C118.747 87.5071 118.606 87.9339 118.257 88.1092L115.284 89.6055ZM114.412 76.5443V80.3684C114.412 80.7609 114.096 81.079 113.706 81.079C113.316 81.079 113 80.7609 113 80.3684V75.4091C112.998 75.3046 113.019 75.1985 113.065 75.0979C113.099 75.0222 113.147 74.953 113.206 74.8938C113.265 74.8343 113.328 74.7896 113.397 74.756L117.626 72.6275C117.974 72.4522 118.398 72.5945 118.573 72.9454C118.747 73.2963 118.606 73.7231 118.257 73.8986L115.284 75.3948L118.257 76.8906C118.606 77.0662 118.747 77.493 118.573 77.8439C118.398 78.195 117.974 78.3373 117.626 78.1617L114.412 76.5443ZM124.671 69.0814C124.77 69.0293 124.881 69 125 69C125.118 69 125.23 69.0293 125.328 69.0814L129.551 71.2066C129.899 71.3821 130.041 71.8089 129.867 72.1598C129.692 72.5107 129.268 72.653 128.92 72.4776L125.706 70.8601V74.6841C125.706 75.0764 125.39 75.3947 125 75.3947C124.61 75.3947 124.294 75.0764 124.294 74.6841V70.8601L121.08 72.4776C120.732 72.653 120.308 72.5107 120.133 72.1598C119.959 71.8089 120.1 71.3821 120.449 71.2066L124.671 69.0814ZM125.328 95.9186C125.23 95.9705 125.118 96 125 96C124.881 96 124.77 95.9705 124.671 95.9186L120.449 93.7934C120.1 93.6179 119.959 93.1911 120.133 92.8402C120.308 92.4891 120.732 92.3468 121.08 92.5224L124.294 94.1399V90.3159C124.294 89.9233 124.61 89.6053 125 89.6053C125.39 89.6053 125.706 89.9233 125.706 90.3159V94.1399L128.919 92.5224C129.268 92.3468 129.692 92.4891 129.866 92.8402C130.041 93.1911 129.899 93.6179 129.551 93.7934L125.328 95.9186ZM125.706 81.5183V85.3423C125.706 85.7346 125.39 86.0529 125 86.0529C124.61 86.0529 124.294 85.7346 124.294 85.3423V81.5183L120.449 79.583C120.1 79.4076 119.959 78.9808 120.133 78.6297C120.308 78.2788 120.732 78.1365 121.08 78.3121L125 80.2848L128.919 78.3121C129.268 78.1365 129.692 78.2788 129.866 78.6297C130.041 78.9808 129.899 79.4076 129.551 79.583L125.706 81.5183Z" fill="#EDC068"/>
<defs>
<filter id="filter0_d_738_222" x="0" y="0" width="250" height="80" filterUnits="userSpaceOnUse" color-interpolation-filters="sRGB">
<feFlood flood-opacity="0" result="BackgroundImageFix"/>
<feColorMatrix in="SourceAlpha" type="matrix" values="0 0 0 0 0 0 0 0 0 0 0 0 0 0 0 0 0 0 127 0" result="hardAlpha"/>
<feOffset dy="4"/>
<feGaussianBlur stdDeviation="5"/>
<feComposite in2="hardAlpha" operator="out"/>
<feColorMatrix type="matrix" values="0 0 0 0 0 0 0 0 0 0 0 0 0 0 0 0 0 0 0.15 0"/>
<feBlend mode="normal" in2="BackgroundImageFix" result="effect1_dropShadow_738_222"/>
<feBlend mode="normal" in="SourceGraphic" in2="effect1_dropShadow_738_222" result="shape"/>
</filter>
<linearGradient id="paint0_linear_738_222" x1="96" y1="82" x2="155" y2="81" gradientUnits="userSpaceOnUse">
<stop stop-color="#3F3106"/>
<stop offset="1" stop-color="#847546"/>
</linearGradient>
</defs>
</svg>
