<svg width="250" height="117" viewBox="0 0 250 117" fill="none" xmlns="http://www.w3.org/2000/svg">
<g filter="url(#filter0_d_758_270)">
<rect x="10" y="6" width="230" height="60" rx="15" fill="#EDC068" shape-rendering="crispEdges"/>
<path d="M88.8849 33.3622H86.2287C86.1529 32.9266 86.0133 32.5407 85.8097 32.2045C85.6061 31.8636 85.3527 31.5748 85.0497 31.3381C84.7467 31.1013 84.401 30.9238 84.0128 30.8054C83.6293 30.6823 83.215 30.6207 82.7699 30.6207C81.9792 30.6207 81.2784 30.8196 80.6676 31.2173C80.0568 31.6103 79.5786 32.188 79.233 32.9503C78.8873 33.7079 78.7145 34.6335 78.7145 35.7273C78.7145 36.84 78.8873 37.7775 79.233 38.5398C79.5833 39.2973 80.0616 39.8703 80.6676 40.2585C81.2784 40.642 81.9768 40.8338 82.7628 40.8338C83.1984 40.8338 83.6056 40.777 83.9844 40.6634C84.3679 40.545 84.7112 40.3722 85.0142 40.1449C85.322 39.9176 85.58 39.6383 85.7884 39.3068C86.0014 38.9754 86.1482 38.5966 86.2287 38.1705L88.8849 38.1847C88.7855 38.8759 88.5701 39.5246 88.2386 40.1307C87.9119 40.7367 87.4834 41.2718 86.9531 41.7358C86.4228 42.1951 85.8026 42.5549 85.0923 42.8153C84.3821 43.071 83.5938 43.1989 82.7273 43.1989C81.4489 43.1989 80.3078 42.9029 79.304 42.3111C78.3002 41.7192 77.5095 40.8646 76.9318 39.7472C76.3542 38.6297 76.0653 37.2898 76.0653 35.7273C76.0653 34.16 76.3565 32.8201 76.9389 31.7074C77.5213 30.59 78.3144 29.7353 79.3182 29.1435C80.322 28.5516 81.4583 28.2557 82.7273 28.2557C83.5369 28.2557 84.2898 28.3693 84.9858 28.5966C85.6818 28.8239 86.3021 29.1577 86.8466 29.598C87.3911 30.0336 87.8385 30.5687 88.1889 31.2031C88.544 31.8329 88.776 32.5526 88.8849 33.3622ZM94.3235 43.2202C93.6322 43.2202 93.0096 43.0971 92.4556 42.8509C91.9064 42.5999 91.4708 42.2306 91.1488 41.7429C90.8316 41.2552 90.6729 40.6539 90.6729 39.9389C90.6729 39.3234 90.7866 38.8144 91.0138 38.4119C91.2411 38.0095 91.5513 37.6875 91.9442 37.446C92.3372 37.2045 92.7799 37.0223 93.2724 36.8991C93.7695 36.7713 94.2833 36.679 94.8136 36.6222C95.4528 36.5559 95.9712 36.4967 96.369 36.4446C96.7667 36.3878 97.0555 36.3026 97.2354 36.1889C97.4201 36.0705 97.5124 35.8883 97.5124 35.642V35.5994C97.5124 35.0644 97.3538 34.6501 97.0366 34.3565C96.7193 34.063 96.2624 33.9162 95.6658 33.9162C95.0361 33.9162 94.5366 34.0535 94.1673 34.3281C93.8027 34.6027 93.5565 34.9271 93.4286 35.3011L91.0281 34.9602C91.2174 34.2973 91.5299 33.7434 91.9656 33.2983C92.4012 32.8485 92.9338 32.5123 93.5636 32.2898C94.1933 32.0625 94.8893 31.9489 95.6516 31.9489C96.1772 31.9489 96.7004 32.0104 97.2212 32.1335C97.7421 32.2566 98.2179 32.4602 98.6488 32.7443C99.0797 33.0237 99.4253 33.4048 99.6857 33.8878C99.9509 34.3707 100.083 34.9744 100.083 35.6989V43H97.6119V41.5014H97.5266C97.3704 41.8045 97.1502 42.0885 96.8661 42.3537C96.5868 42.6141 96.234 42.8248 95.8079 42.9858C95.3865 43.142 94.8917 43.2202 94.3235 43.2202ZM94.9911 41.331C95.5072 41.331 95.9547 41.2292 96.3335 41.0256C96.7122 40.8172 97.0034 40.5426 97.207 40.2017C97.4154 39.8608 97.5195 39.4891 97.5195 39.0866V37.8011C97.439 37.8674 97.3017 37.929 97.1076 37.9858C96.9182 38.0426 96.7051 38.0923 96.4684 38.1349C96.2317 38.1776 95.9973 38.2154 95.7653 38.2486C95.5333 38.2817 95.332 38.3101 95.1616 38.3338C94.7781 38.3859 94.4348 38.4711 94.1317 38.5895C93.8287 38.7079 93.5896 38.8736 93.4144 39.0866C93.2392 39.295 93.1516 39.5649 93.1516 39.8963C93.1516 40.3698 93.3245 40.7273 93.6701 40.9688C94.0157 41.2102 94.4561 41.331 94.9911 41.331ZM105.24 36.608V43H102.669V32.0909H105.126V33.9446H105.254C105.505 33.3338 105.905 32.8485 106.454 32.4886C107.008 32.1288 107.692 31.9489 108.507 31.9489C109.26 31.9489 109.915 32.1098 110.474 32.4318C111.038 32.7538 111.473 33.2202 111.781 33.831C112.093 34.4418 112.247 35.1828 112.243 36.054V43H109.672V36.4517C109.672 35.7225 109.482 35.152 109.103 34.7401C108.729 34.3281 108.211 34.1222 107.548 34.1222C107.098 34.1222 106.698 34.2216 106.348 34.4205C106.002 34.6146 105.73 34.8963 105.531 35.2656C105.337 35.6349 105.24 36.0824 105.24 36.608ZM117.037 28.4545V29.9034C117.037 30.3201 116.956 30.7533 116.795 31.2031C116.639 31.6482 116.423 32.0743 116.149 32.4815C115.874 32.884 115.562 33.2296 115.211 33.5185L114.018 32.7443C114.279 32.3513 114.506 31.9276 114.7 31.473C114.894 31.0137 114.991 30.4953 114.991 29.9176V28.4545H117.037ZM124.933 32.0909V34.0795H118.661V32.0909H124.933ZM120.21 29.4773H122.781V39.7188C122.781 40.0644 122.833 40.3295 122.937 40.5142C123.046 40.6941 123.188 40.8172 123.363 40.8835C123.538 40.9498 123.732 40.983 123.945 40.983C124.106 40.983 124.253 40.9711 124.386 40.9474C124.523 40.9238 124.627 40.9025 124.698 40.8835L125.131 42.8935C124.994 42.9408 124.798 42.9929 124.542 43.0497C124.291 43.1065 123.983 43.1397 123.619 43.1491C122.975 43.1681 122.395 43.071 121.879 42.858C121.362 42.6402 120.953 42.304 120.65 41.8494C120.352 41.3949 120.205 40.8267 120.21 40.1449V29.4773ZM135.218 43L131.113 28.4545H133.947L136.568 39.1435H136.703L139.501 28.4545H142.079L144.885 39.1506H145.012L147.633 28.4545H150.467L146.362 43H143.762L140.85 32.794H140.737L137.818 43H135.218ZM154.206 43.2202C153.515 43.2202 152.892 43.0971 152.338 42.8509C151.789 42.5999 151.354 42.2306 151.032 41.7429C150.714 41.2552 150.556 40.6539 150.556 39.9389C150.556 39.3234 150.669 38.8144 150.897 38.4119C151.124 38.0095 151.434 37.6875 151.827 37.446C152.22 37.2045 152.663 37.0223 153.155 36.8991C153.652 36.7713 154.166 36.679 154.696 36.6222C155.336 36.5559 155.854 36.4967 156.252 36.4446C156.65 36.3878 156.938 36.3026 157.118 36.1889C157.303 36.0705 157.395 35.8883 157.395 35.642V35.5994C157.395 35.0644 157.237 34.6501 156.919 34.3565C156.602 34.063 156.145 33.9162 155.549 33.9162C154.919 33.9162 154.419 34.0535 154.05 34.3281C153.685 34.6027 153.439 34.9271 153.311 35.3011L150.911 34.9602C151.1 34.2973 151.413 33.7434 151.848 33.2983C152.284 32.8485 152.817 32.5123 153.446 32.2898C154.076 32.0625 154.772 31.9489 155.534 31.9489C156.06 31.9489 156.583 32.0104 157.104 32.1335C157.625 32.2566 158.101 32.4602 158.532 32.7443C158.962 33.0237 159.308 33.4048 159.569 33.8878C159.834 34.3707 159.966 34.9744 159.966 35.6989V43H157.495V41.5014H157.409C157.253 41.8045 157.033 42.0885 156.749 42.3537C156.47 42.6141 156.117 42.8248 155.691 42.9858C155.269 43.142 154.775 43.2202 154.206 43.2202ZM154.874 41.331C155.39 41.331 155.837 41.2292 156.216 41.0256C156.595 40.8172 156.886 40.5426 157.09 40.2017C157.298 39.8608 157.402 39.4891 157.402 39.0866V37.8011C157.322 37.8674 157.185 37.929 156.99 37.9858C156.801 38.0426 156.588 38.0923 156.351 38.1349C156.114 38.1776 155.88 38.2154 155.648 38.2486C155.416 38.2817 155.215 38.3101 155.044 38.3338C154.661 38.3859 154.318 38.4711 154.015 38.5895C153.712 38.7079 153.472 38.8736 153.297 39.0866C153.122 39.295 153.034 39.5649 153.034 39.8963C153.034 40.3698 153.207 40.7273 153.553 40.9688C153.899 41.2102 154.339 41.331 154.874 41.331ZM162.551 43V32.0909H165.123V43H162.551ZM163.844 30.5426C163.437 30.5426 163.087 30.4077 162.793 30.1378C162.499 29.8632 162.353 29.5341 162.353 29.1506C162.353 28.7623 162.499 28.4332 162.793 28.1634C163.087 27.8887 163.437 27.7514 163.844 27.7514C164.256 27.7514 164.606 27.8887 164.895 28.1634C165.189 28.4332 165.336 28.7623 165.336 29.1506C165.336 29.5341 165.189 29.8632 164.895 30.1378C164.606 30.4077 164.256 30.5426 163.844 30.5426ZM173.214 32.0909V34.0795H166.942V32.0909H173.214ZM168.491 29.4773H171.062V39.7188C171.062 40.0644 171.114 40.3295 171.218 40.5142C171.327 40.6941 171.469 40.8172 171.644 40.8835C171.819 40.9498 172.013 40.983 172.227 40.983C172.388 40.983 172.534 40.9711 172.667 40.9474C172.804 40.9238 172.908 40.9025 172.979 40.8835L173.413 42.8935C173.275 42.9408 173.079 42.9929 172.823 43.0497C172.572 43.1065 172.264 43.1397 171.9 43.1491C171.256 43.1681 170.676 43.071 170.16 42.858C169.644 42.6402 169.234 42.304 168.931 41.8494C168.633 41.3949 168.486 40.8267 168.491 40.1449V29.4773Z" fill="white"/>
</g>
<circle cx="125" cy="82" r="35" fill="#EDC068"/>
<circle cx="125.5" cy="81.5" r="28.5" fill="url(#paint0_linear_758_270)"/>
<path d="M133.003 77.0423C133.098 77.0877 133.175 77.165 133.225 77.265C133.225 77.2696 133.229 77.2741 133.234 77.2787C133.238 77.2877 133.243 77.3014 133.247 77.3105C133.27 77.3696 133.279 77.4332 133.279 77.4923V80.9336C133.279 81.2063 133.062 81.4245 132.791 81.4245C132.519 81.4245 132.302 81.2018 132.302 80.9336V78.2833L130.087 79.4061C129.847 79.5289 129.553 79.4289 129.436 79.1879C129.314 78.9425 129.413 78.647 129.653 78.5288L131.705 77.4923L129.653 76.4558C129.413 76.3331 129.314 76.0376 129.436 75.7967C129.558 75.5512 129.847 75.4557 130.087 75.5785L133.003 77.0559V77.0423ZM133.279 87.3297C133.279 87.4024 133.265 87.4752 133.234 87.5434C133.211 87.5979 133.175 87.6434 133.139 87.6843C133.098 87.7252 133.053 87.757 133.008 87.7798L130.091 89.2572C129.852 89.3799 129.558 89.2799 129.44 89.039C129.318 88.7935 129.417 88.498 129.657 88.3798L131.71 87.3433L129.657 86.3069C129.417 86.1841 129.318 85.8887 129.44 85.6477C129.562 85.4022 129.852 85.3068 130.091 85.4295L132.307 86.5524V83.9021C132.307 83.6293 132.524 83.4111 132.795 83.4111C133.066 83.4111 133.283 83.6339 133.283 83.9021V87.3433L133.279 87.3297ZM118.299 87.3388L120.347 88.3753C120.587 88.498 120.687 88.7935 120.564 89.0344C120.442 89.2799 120.153 89.3754 119.913 89.2526L116.997 87.7752C116.902 87.7298 116.825 87.6525 116.775 87.5525C116.775 87.5479 116.771 87.5434 116.766 87.5388C116.762 87.5297 116.757 87.5161 116.753 87.507C116.73 87.4479 116.721 87.3843 116.721 87.3252V83.8839C116.721 83.6111 116.938 83.3929 117.21 83.3929C117.481 83.3929 117.698 83.6157 117.698 83.8839V86.5342L119.913 85.4113C120.153 85.2886 120.447 85.3886 120.564 85.6295C120.687 85.875 120.587 86.1705 120.347 86.2887L118.299 87.3252V87.3388ZM117.698 78.2788V80.929C117.698 81.2018 117.481 81.42 117.21 81.42C116.938 81.42 116.721 81.1972 116.721 80.929V77.4878C116.721 77.415 116.735 77.3423 116.766 77.2741C116.789 77.2196 116.825 77.1741 116.861 77.1332C116.902 77.0923 116.947 77.0604 116.992 77.0377L119.909 75.5603C120.148 75.4375 120.442 75.5376 120.56 75.7785C120.682 76.024 120.583 76.3195 120.343 76.4377L118.295 77.4741L120.343 78.5106C120.583 78.6333 120.682 78.9288 120.56 79.1698C120.438 79.4152 120.148 79.5107 119.909 79.388L117.693 78.2651L117.698 78.2788ZM124.774 73.1009C124.842 73.0646 124.919 73.0464 125 73.0464C125.081 73.0464 125.158 73.0646 125.226 73.1009L128.138 74.5738C128.378 74.6966 128.477 74.992 128.355 75.233C128.233 75.4785 127.943 75.5739 127.704 75.4512L125.488 74.3283V76.9786C125.488 77.2514 125.271 77.4696 125 77.4696C124.729 77.4696 124.512 77.2468 124.512 76.9786V74.3283L122.296 75.4512C122.057 75.5739 121.763 75.4739 121.645 75.233C121.523 74.9875 121.622 74.692 121.862 74.5738L124.774 73.1009ZM125.226 91.712C125.158 91.7484 125.081 91.7665 125 91.7665C124.919 91.7665 124.842 91.7438 124.774 91.712L121.862 90.2391C121.622 90.1164 121.523 89.8209 121.645 89.58C121.767 89.3345 122.057 89.239 122.296 89.3617L124.512 90.4846V87.8343C124.512 87.5616 124.729 87.3433 125 87.3433C125.271 87.3433 125.488 87.5661 125.488 87.8343V90.4846L127.704 89.3617C127.943 89.239 128.237 89.339 128.355 89.58C128.477 89.8254 128.378 90.1209 128.138 90.2391L125.226 91.712ZM125.488 81.7246V84.3749C125.488 84.6476 125.271 84.8658 125 84.8658C124.729 84.8658 124.512 84.6431 124.512 84.3749V81.7246L121.858 80.3835C121.618 80.2608 121.518 79.9653 121.641 79.7244C121.763 79.4789 122.052 79.3834 122.292 79.5062L124.995 80.8745L127.699 79.5062C127.939 79.3834 128.233 79.4834 128.35 79.7244C128.473 79.9698 128.373 80.2653 128.133 80.3835L125.479 81.7246H125.488Z" fill="#ECC067"/>
<path d="M133.749 63H115.591C114.162 63 113.004 64.1638 113.004 65.6003V73.6102C113.004 73.8784 113.221 74.1012 113.493 74.1012C113.759 74.1012 113.981 73.883 113.981 73.6102V65.9321C113.981 64.8547 114.854 63.9774 115.925 63.9774H134.079C135.151 63.9774 136.023 64.8547 136.023 65.9321V73.6102C136.023 73.8784 136.24 74.1012 136.512 74.1012C136.778 74.1012 137 73.883 137 73.6102V65.4639C137 64.1047 135.906 63.0045 134.554 63.0045H133.753L133.749 63Z" fill="#ECC067"/>
<path d="M116.251 101.827H134.409C135.838 101.827 136.995 100.663 136.995 99.2264V91.2119C136.995 90.9437 136.778 90.7209 136.507 90.7209C136.24 90.7209 136.019 90.9391 136.019 91.2119V98.89C136.019 99.9674 135.146 100.845 134.075 100.845H115.921C114.849 100.845 113.977 99.9674 113.977 98.89V91.2119C113.977 90.9437 113.76 90.7209 113.488 90.7209C113.222 90.7209 113 90.9391 113 91.2119V99.3628C113 100.722 114.094 101.822 115.446 101.822H116.246L116.251 101.827Z" fill="#ECC067"/>
<defs>
<filter id="filter0_d_758_270" x="0" y="0" width="250" height="80" filterUnits="userSpaceOnUse" color-interpolation-filters="sRGB">
<feFlood flood-opacity="0" result="BackgroundImageFix"/>
<feColorMatrix in="SourceAlpha" type="matrix" values="0 0 0 0 0 0 0 0 0 0 0 0 0 0 0 0 0 0 127 0" result="hardAlpha"/>
<feOffset dy="4"/>
<feGaussianBlur stdDeviation="5"/>
<feComposite in2="hardAlpha" operator="out"/>
<feColorMatrix type="matrix" values="0 0 0 0 0 0 0 0 0 0 0 0 0 0 0 0 0 0 0.15 0"/>
<feBlend mode="normal" in2="BackgroundImageFix" result="effect1_dropShadow_758_270"/>
<feBlend mode="normal" in="SourceGraphic" in2="effect1_dropShadow_758_270" result="shape"/>
</filter>
<linearGradient id="paint0_linear_758_270" x1="93.7115" y1="81.5" x2="158.385" y2="80.4038" gradientUnits="userSpaceOnUse">
<stop stop-color="#3F3106"/>
<stop offset="1" stop-color="#847546"/>
</linearGradient>
</defs>
</svg>
