<svg width="38" height="53" viewBox="0 0 38 53" fill="none" xmlns="http://www.w3.org/2000/svg">
<path d="M34.3679 18.0923C34.3678 16.0175 33.9518 13.9634 33.144 12.0495C32.3362 10.1355 31.1526 8.39974 29.6622 6.94316C28.1718 5.48658 26.4041 4.3382 24.4621 3.56477C22.52 2.79134 20.4423 2.40829 18.3496 2.43787C9.61705 2.55753 2.58889 9.79447 2.78527 18.4495C2.86191 22.0228 4.17544 25.4613 6.50564 28.1886C10.3033 32.6276 13.2538 37.715 15.2129 43.2019C16.1666 45.8904 17.0536 48.6451 17.8739 51.4658C17.9153 51.6088 18.003 51.7344 18.1234 51.8232C18.2438 51.912 18.3903 51.9591 18.5404 51.9573C18.6905 51.9554 18.8358 51.9048 18.954 51.8131C19.0722 51.7214 19.1567 51.5937 19.1945 51.4497C19.7074 49.4648 20.2593 47.5163 20.8502 45.6041C22.8433 39.234 26.1453 33.3421 30.5484 28.2994C33.0173 25.4625 34.3732 21.8391 34.3679 18.0923V18.0923Z" fill="#4643E2"/>
<path d="M18.575 28.778C24.6247 28.778 29.5289 23.9163 29.5289 17.919C29.5289 11.9218 24.6247 7.06006 18.575 7.06006C12.5253 7.06006 7.62109 11.9218 7.62109 17.919C7.62109 23.9163 12.5253 28.778 18.575 28.778Z" fill="#1A1951"/>
</svg>
