<svg width="326" height="62" viewBox="0 0 326 62" fill="none" xmlns="http://www.w3.org/2000/svg">
<rect y="0.5" width="326" height="61" rx="15" fill="#EDC068"/>
<path d="M114.48 7.74414H92.7281C91.0165 7.74414 89.6299 9.13825 89.6299 10.8591V20.4545C89.6299 20.7758 89.8899 21.0426 90.2149 21.0426C90.5344 21.0426 90.7998 20.7812 90.7998 20.4545V11.2566C90.7998 9.966 91.8452 8.91497 93.1289 8.91497H114.876C116.16 8.91497 117.205 9.966 117.205 11.2566V20.4545C117.205 20.7758 117.465 21.0426 117.79 21.0426C118.11 21.0426 118.375 20.7812 118.375 20.4545V10.6957C118.375 9.06745 117.064 7.74959 115.445 7.74959H114.486L114.48 7.74414Z" fill="#7C622B"/>
<path d="M93.5192 54.2556H115.272C116.983 54.2556 118.37 52.8615 118.37 51.1406V41.5398C118.37 41.2185 118.11 40.9517 117.785 40.9517C117.465 40.9517 117.2 41.2131 117.2 41.5398V50.7376C117.2 52.0283 116.154 53.0793 114.871 53.0793H93.1238C91.8401 53.0793 90.7947 52.0283 90.7947 50.7376V41.5398C90.7947 41.2185 90.5347 40.9517 90.2097 40.9517C89.8902 40.9517 89.6248 41.2131 89.6248 41.5398V51.304C89.6248 52.9323 90.9355 54.2501 92.555 54.2501H93.5138L93.5192 54.2556Z" fill="#7C622B"/>
<path d="M98.7809 43.564H97.3747L99.935 36.2912H101.561L104.125 43.564H102.719L100.777 37.7827H100.72L98.7809 43.564ZM98.8271 40.7124H102.662V41.7706H98.8271V40.7124ZM105.083 43.564V36.2912H107.811C108.369 36.2912 108.838 36.3883 109.217 36.5824C109.598 36.7766 109.886 37.0488 110.08 37.3992C110.276 37.7472 110.374 38.1532 110.374 38.6172C110.374 39.0836 110.275 39.4884 110.076 39.8317C109.88 40.1726 109.59 40.4366 109.206 40.6236C108.823 40.8083 108.352 40.9006 107.793 40.9006H105.85V39.8069H107.615C107.942 39.8069 108.209 39.7619 108.418 39.6719C108.626 39.5796 108.78 39.4458 108.879 39.2706C108.981 39.0931 109.032 38.8753 109.032 38.6172C109.032 38.3592 108.981 38.139 108.879 37.9567C108.778 37.7721 108.623 37.6324 108.414 37.5377C108.206 37.4406 107.937 37.3921 107.608 37.3921H106.401V43.564H105.083ZM108.84 40.2685L110.641 43.564H109.171L107.402 40.2685H108.84Z" fill="#7C622B"/>
<path d="M112.253 18.2135C112.349 18.2611 112.431 18.3404 112.482 18.4454C112.485 18.4504 112.487 18.4554 112.489 18.4605C112.494 18.4715 112.499 18.4829 112.503 18.4942C112.526 18.5571 112.536 18.6218 112.535 18.6854V22.2688C112.535 22.5524 112.31 22.7822 112.033 22.7822C111.756 22.7822 111.531 22.5524 111.531 22.2688V19.5057L109.245 20.6744C108.997 20.8013 108.696 20.6985 108.572 20.4448C108.448 20.1912 108.548 19.8828 108.796 19.756L110.911 18.6751L108.796 17.5941C108.548 17.4672 108.448 17.1588 108.572 16.9053C108.696 16.6517 108.997 16.549 109.245 16.6756L112.253 18.2135ZM112.535 28.9329C112.537 29.0082 112.522 29.085 112.489 29.1578C112.465 29.2124 112.431 29.2624 112.389 29.3053C112.347 29.3482 112.302 29.3805 112.253 29.4048L109.245 30.9426C108.997 31.0694 108.696 30.9666 108.572 30.7131C108.448 30.4594 108.548 30.151 108.796 30.0243L110.911 28.9433L108.796 27.8622C108.548 27.7355 108.448 27.4271 108.572 27.1734C108.696 26.9199 108.997 26.8171 109.245 26.9439L111.531 28.1125V25.3494C111.531 25.066 111.756 24.8361 112.033 24.8361C112.31 24.8361 112.535 25.066 112.535 25.3494L112.535 28.9329ZM97.0897 28.9432L99.2039 30.0243C99.4521 30.151 99.5526 30.4594 99.4285 30.7131C99.3045 30.9666 99.0029 31.0694 98.755 30.9425L95.747 29.4048C95.6512 29.357 95.5694 29.2779 95.5179 29.1729C95.5156 29.1679 95.5132 29.1627 95.5109 29.1577C95.506 29.1467 95.5013 29.1354 95.4971 29.124C95.4739 29.0611 95.4636 28.9965 95.465 28.9329V25.3493C95.465 25.0659 95.6897 24.836 95.9671 24.836C96.2443 24.836 96.469 25.0659 96.469 25.3493V28.1124L98.7549 26.9438C99.0029 26.817 99.3045 26.9198 99.4285 27.1733C99.5526 27.427 99.452 27.7354 99.2039 27.8621L97.0897 28.9432ZM96.469 19.5057V22.2688C96.469 22.5524 96.2443 22.7823 95.9671 22.7823C95.6897 22.7823 95.465 22.5524 95.465 22.2688V18.6854C95.4634 18.6099 95.4781 18.5333 95.5108 18.4606C95.5354 18.4059 95.5693 18.3559 95.611 18.3131C95.6532 18.2701 95.6983 18.2378 95.747 18.2135L98.755 16.6756C99.0029 16.5489 99.3045 16.6517 99.4285 16.9052C99.5526 17.1588 99.4521 17.4672 99.2039 17.594L97.0897 18.6751L99.2039 19.7559C99.4521 19.8828 99.5526 20.1912 99.4285 20.4447C99.3045 20.6984 99.0029 20.8012 98.755 20.6744L96.469 19.5057ZM103.766 14.1132C103.836 14.0756 103.916 14.0544 104 14.0544C104.084 14.0544 104.164 14.0756 104.234 14.1132L107.237 15.6488C107.485 15.7757 107.585 16.0841 107.462 16.3376C107.338 16.5911 107.036 16.6939 106.788 16.5673L104.502 15.3985V18.1616C104.502 18.4451 104.277 18.6751 104 18.6751C103.723 18.6751 103.498 18.4451 103.498 18.1616V15.3985L101.212 16.5673C100.964 16.6939 100.663 16.5912 100.539 16.3376C100.414 16.084 100.515 15.7756 100.763 15.6488L103.766 14.1132ZM104.234 33.5049C104.164 33.5424 104.084 33.5637 104 33.5637C103.916 33.5637 103.836 33.5424 103.766 33.5049L100.763 31.9693C100.515 31.8424 100.414 31.5341 100.538 31.2805C100.663 31.0268 100.964 30.924 101.212 31.0509L103.498 32.2196V29.4565C103.498 29.1729 103.723 28.9431 104 28.9431C104.277 28.9431 104.502 29.1729 104.502 29.4565V32.2196L106.788 31.0509C107.036 30.924 107.337 31.0268 107.462 31.2805C107.585 31.5341 107.485 31.8425 107.237 31.9693L104.234 33.5049ZM104.502 23.0997V25.8628C104.502 26.1462 104.277 26.3762 104 26.3762C103.723 26.3762 103.498 26.1462 103.498 25.8628V23.0997L100.763 21.7013C100.515 21.5746 100.414 21.2662 100.538 21.0125C100.663 20.759 100.964 20.6562 101.212 20.783L104 22.2084L106.788 20.783C107.036 20.6562 107.337 20.759 107.461 21.0125C107.585 21.2662 107.485 21.5746 107.237 21.7013L104.502 23.0997Z" fill="#7C622B"/>
<path d="M147.25 31.5C147.25 33.224 146.927 34.7005 146.281 35.9297C145.641 37.1536 144.766 38.0911 143.656 38.7422C142.552 39.3932 141.3 39.7187 139.899 39.7187C138.498 39.7187 137.242 39.3932 136.133 38.7422C135.029 38.0859 134.154 37.1458 133.508 35.9219C132.867 34.6927 132.547 33.2187 132.547 31.5C132.547 29.776 132.867 28.3021 133.508 27.0781C134.154 25.849 135.029 24.9089 136.133 24.2578C137.242 23.6068 138.498 23.2812 139.899 23.2812C141.3 23.2812 142.552 23.6068 143.656 24.2578C144.766 24.9089 145.641 25.849 146.281 27.0781C146.927 28.3021 147.25 29.776 147.25 31.5ZM144.336 31.5C144.336 30.2865 144.146 29.263 143.766 28.4297C143.391 27.5911 142.87 26.9583 142.203 26.5313C141.537 26.099 140.768 25.8828 139.899 25.8828C139.029 25.8828 138.261 26.099 137.594 26.5313C136.927 26.9583 136.404 27.5911 136.024 28.4297C135.649 29.263 135.461 30.2865 135.461 31.5C135.461 32.7135 135.649 33.7396 136.024 34.5781C136.404 35.4115 136.927 36.0443 137.594 36.4766C138.261 36.9036 139.029 37.1172 139.899 37.1172C140.768 37.1172 141.537 36.9036 142.203 36.4766C142.87 36.0443 143.391 35.4115 143.766 34.5781C144.146 33.7396 144.336 32.7135 144.336 31.5ZM157.514 34.4531V27.5H160.342V39.5H157.6V37.3672H157.475C157.204 38.0391 156.759 38.5885 156.139 39.0156C155.524 39.4427 154.767 39.6563 153.865 39.6563C153.079 39.6563 152.384 39.4818 151.78 39.1328C151.181 38.7786 150.712 38.2656 150.373 37.5938C150.035 36.9167 149.865 36.099 149.865 35.1406V27.5H152.694V34.7031C152.694 35.4635 152.902 36.0677 153.319 36.5156C153.735 36.9635 154.282 37.1875 154.959 37.1875C155.376 37.1875 155.78 37.0859 156.17 36.8828C156.561 36.6797 156.881 36.3776 157.131 35.9766C157.386 35.5703 157.514 35.0625 157.514 34.4531ZM163.25 39.5V27.5H165.992V29.5H166.117C166.336 28.8073 166.711 28.2734 167.242 27.8984C167.779 27.5182 168.391 27.3281 169.078 27.3281C169.235 27.3281 169.409 27.3359 169.602 27.3516C169.8 27.362 169.964 27.3802 170.094 27.4062V30.0078C169.974 29.9661 169.784 29.9297 169.524 29.8984C169.268 29.862 169.021 29.8437 168.781 29.8437C168.266 29.8437 167.802 29.9557 167.391 30.1797C166.985 30.3984 166.664 30.7031 166.43 31.0937C166.196 31.4844 166.078 31.9349 166.078 32.4453V39.5H163.25ZM179.696 23.5L183.86 36.0937H184.024L188.18 23.5H191.367L185.727 39.5H182.149L176.516 23.5H179.696ZM197.295 39.7344C196.123 39.7344 195.108 39.4766 194.248 38.9609C193.389 38.4453 192.722 37.724 192.248 36.7969C191.78 35.8698 191.545 34.7865 191.545 33.5469C191.545 32.3073 191.78 31.2214 192.248 30.2891C192.722 29.3568 193.389 28.6328 194.248 28.1172C195.108 27.6016 196.123 27.3438 197.295 27.3438C198.467 27.3438 199.483 27.6016 200.342 28.1172C201.201 28.6328 201.865 29.3568 202.334 30.2891C202.808 31.2214 203.045 32.3073 203.045 33.5469C203.045 34.7865 202.808 35.8698 202.334 36.7969C201.865 37.724 201.201 38.4453 200.342 38.9609C199.483 39.4766 198.467 39.7344 197.295 39.7344ZM197.311 37.4687C197.946 37.4687 198.477 37.2943 198.905 36.9453C199.332 36.5911 199.649 36.1172 199.858 35.5234C200.071 34.9297 200.178 34.2682 200.178 33.5391C200.178 32.8047 200.071 32.1406 199.858 31.5469C199.649 30.9479 199.332 30.4714 198.905 30.1172C198.477 29.763 197.946 29.5859 197.311 29.5859C196.66 29.5859 196.118 29.763 195.686 30.1172C195.259 30.4714 194.938 30.9479 194.725 31.5469C194.517 32.1406 194.412 32.8047 194.412 33.5391C194.412 34.2682 194.517 34.9297 194.725 35.5234C194.938 36.1172 195.259 36.5911 195.686 36.9453C196.118 37.2943 196.66 37.4687 197.311 37.4687ZM205.446 39.5V27.5H208.274V39.5H205.446ZM206.867 25.7969C206.42 25.7969 206.034 25.6484 205.711 25.3516C205.388 25.0495 205.227 24.6875 205.227 24.2656C205.227 23.8385 205.388 23.4766 205.711 23.1797C206.034 22.8776 206.42 22.7266 206.867 22.7266C207.321 22.7266 207.706 22.8776 208.024 23.1797C208.347 23.4766 208.508 23.8385 208.508 24.2656C208.508 24.6875 208.347 25.0495 208.024 25.3516C207.706 25.6484 207.321 25.7969 206.867 25.7969ZM216.416 39.7344C215.218 39.7344 214.19 39.4714 213.33 38.9453C212.476 38.4193 211.817 37.6927 211.354 36.7656C210.895 35.8333 210.666 34.7604 210.666 33.5469C210.666 32.3281 210.901 31.2526 211.369 30.3203C211.838 29.3828 212.5 28.6536 213.354 28.1328C214.213 27.6068 215.229 27.3438 216.401 27.3438C217.375 27.3438 218.237 27.5234 218.987 27.8828C219.742 28.237 220.343 28.7396 220.791 29.3906C221.239 30.0365 221.494 30.7917 221.557 31.6562H218.854C218.744 31.0781 218.484 30.5964 218.073 30.2109C217.666 29.8203 217.122 29.625 216.44 29.625C215.862 29.625 215.354 29.7812 214.916 30.0937C214.479 30.401 214.138 30.8437 213.893 31.4219C213.653 32 213.533 32.6927 213.533 33.5C213.533 34.3177 213.653 35.0208 213.893 35.6094C214.132 36.1927 214.468 36.6432 214.901 36.9609C215.338 37.2734 215.851 37.4297 216.44 37.4297C216.856 37.4297 217.229 37.3516 217.557 37.1953C217.89 37.0339 218.169 36.8021 218.393 36.5C218.617 36.1979 218.77 35.8307 218.854 35.3984H221.557C221.489 36.2474 221.239 37 220.807 37.6562C220.375 38.3073 219.786 38.8177 219.041 39.1875C218.296 39.5521 217.421 39.7344 216.416 39.7344ZM229.192 39.7344C227.989 39.7344 226.949 39.4844 226.074 38.9844C225.205 38.4792 224.535 37.7656 224.067 36.8437C223.598 35.9167 223.364 34.8255 223.364 33.5703C223.364 32.3359 223.598 31.2526 224.067 30.3203C224.541 29.3828 225.202 28.6536 226.051 28.1328C226.9 27.6068 227.897 27.3438 229.043 27.3438C229.783 27.3438 230.481 27.4635 231.137 27.7031C231.798 27.9375 232.382 28.3021 232.887 28.7969C233.397 29.2917 233.798 29.9219 234.09 30.6875C234.382 31.4479 234.528 32.3542 234.528 33.4062V34.2734H224.692V32.3672H231.817C231.811 31.8255 231.694 31.3437 231.465 30.9219C231.236 30.4948 230.916 30.1589 230.504 29.9141C230.098 29.6693 229.624 29.5469 229.082 29.5469C228.504 29.5469 227.996 29.6875 227.559 29.9687C227.121 30.2448 226.78 30.6094 226.535 31.0625C226.296 31.5104 226.173 32.0026 226.168 32.5391V34.2031C226.168 34.901 226.296 35.5 226.551 36C226.806 36.4948 227.163 36.875 227.621 37.1406C228.08 37.401 228.616 37.5312 229.231 37.5312C229.642 37.5312 230.015 37.474 230.348 37.3594C230.681 37.2396 230.97 37.0651 231.215 36.8359C231.46 36.6068 231.645 36.3229 231.77 35.9844L234.41 36.2812C234.244 36.9792 233.926 37.5885 233.457 38.1094C232.994 38.625 232.4 39.026 231.676 39.3125C230.952 39.5937 230.124 39.7344 229.192 39.7344Z" fill="#7C622B"/>
</svg>
