<svg width="326" height="67" viewBox="0 0 326 67" fill="none" xmlns="http://www.w3.org/2000/svg">
<rect width="326" height="67" rx="15" fill="#EDC068"/>
<path d="M119.48 10.2441H97.7281C96.0165 10.2441 94.6299 11.6382 94.6299 13.3591V22.9545C94.6299 23.2758 94.8899 23.5426 95.2149 23.5426C95.5344 23.5426 95.7998 23.2812 95.7998 22.9545V13.7566C95.7998 12.466 96.8452 11.415 98.1289 11.415H119.876C121.16 11.415 122.205 12.466 122.205 13.7566V22.9545C122.205 23.2758 122.465 23.5426 122.79 23.5426C123.11 23.5426 123.375 23.2812 123.375 22.9545V13.1957C123.375 11.5675 122.064 10.2496 120.445 10.2496H119.486L119.48 10.2441Z" fill="#7C622B"/>
<path d="M98.5192 56.7556H120.272C121.983 56.7556 123.37 55.3615 123.37 53.6406V44.0398C123.37 43.7185 123.11 43.4517 122.785 43.4517C122.465 43.4517 122.2 43.7131 122.2 44.0398V53.2376C122.2 54.5283 121.154 55.5793 119.871 55.5793H98.1238C96.8401 55.5793 95.7947 54.5283 95.7947 53.2376V44.0398C95.7947 43.7185 95.5347 43.4517 95.2097 43.4517C94.8902 43.4517 94.6248 43.7131 94.6248 44.0398V53.804C94.6248 55.4323 95.9355 56.7501 97.555 56.7501H98.5138L98.5192 56.7556Z" fill="#7C622B"/>
<path d="M103.781 46.064H102.375L104.935 38.7912H106.561L109.125 46.064H107.719L105.777 40.2827H105.72L103.781 46.064ZM103.827 43.2124H107.662V44.2706H103.827V43.2124ZM110.083 46.064V38.7912H112.811C113.369 38.7912 113.838 38.8883 114.217 39.0824C114.598 39.2766 114.886 39.5488 115.08 39.8992C115.276 40.2472 115.374 40.6532 115.374 41.1172C115.374 41.5836 115.275 41.9884 115.076 42.3317C114.88 42.6726 114.59 42.9366 114.206 43.1236C113.823 43.3083 113.352 43.4006 112.793 43.4006H110.85V42.3069H112.615C112.942 42.3069 113.209 42.2619 113.418 42.1719C113.626 42.0796 113.78 41.9458 113.879 41.7706C113.981 41.5931 114.032 41.3753 114.032 41.1172C114.032 40.8592 113.981 40.639 113.879 40.4567C113.778 40.2721 113.623 40.1324 113.414 40.0377C113.206 39.9406 112.937 39.8921 112.608 39.8921H111.401V46.064H110.083ZM113.84 42.7685L115.641 46.064H114.171L112.402 42.7685H113.84Z" fill="#7C622B"/>
<path d="M117.253 20.7135C117.349 20.7611 117.431 20.8404 117.482 20.9454C117.485 20.9504 117.487 20.9554 117.489 20.9605C117.494 20.9715 117.499 20.9829 117.503 20.9942C117.526 21.0571 117.536 21.1218 117.535 21.1854V24.7688C117.535 25.0524 117.31 25.2822 117.033 25.2822C116.756 25.2822 116.531 25.0524 116.531 24.7688V22.0057L114.245 23.1744C113.997 23.3013 113.696 23.1985 113.572 22.9448C113.448 22.6912 113.548 22.3828 113.796 22.256L115.911 21.1751L113.796 20.0941C113.548 19.9672 113.448 19.6588 113.572 19.4053C113.696 19.1517 113.997 19.049 114.245 19.1756L117.253 20.7135ZM117.535 31.4329C117.537 31.5082 117.522 31.585 117.489 31.6578C117.465 31.7124 117.431 31.7624 117.389 31.8053C117.347 31.8482 117.302 31.8805 117.253 31.9048L114.245 33.4426C113.997 33.5694 113.696 33.4666 113.572 33.2131C113.448 32.9594 113.548 32.651 113.796 32.5243L115.911 31.4433L113.796 30.3622C113.548 30.2355 113.448 29.9271 113.572 29.6734C113.696 29.4199 113.997 29.3171 114.245 29.4439L116.531 30.6125V27.8494C116.531 27.566 116.756 27.3361 117.033 27.3361C117.31 27.3361 117.535 27.566 117.535 27.8494L117.535 31.4329ZM102.09 31.4432L104.204 32.5243C104.452 32.651 104.553 32.9594 104.429 33.2131C104.304 33.4666 104.003 33.5694 103.755 33.4425L100.747 31.9048C100.651 31.857 100.569 31.7779 100.518 31.6729C100.516 31.6679 100.513 31.6627 100.511 31.6577C100.506 31.6467 100.501 31.6354 100.497 31.6241C100.474 31.5611 100.464 31.4965 100.465 31.4329V27.8493C100.465 27.5659 100.69 27.336 100.967 27.336C101.244 27.336 101.469 27.5659 101.469 27.8493V30.6124L103.755 29.4438C104.003 29.317 104.304 29.4198 104.429 29.6733C104.553 29.927 104.452 30.2354 104.204 30.3621L102.09 31.4432ZM101.469 22.0057V24.7688C101.469 25.0524 101.244 25.2823 100.967 25.2823C100.69 25.2823 100.465 25.0524 100.465 24.7688V21.1854C100.463 21.1099 100.478 21.0333 100.511 20.9606C100.535 20.9059 100.569 20.8559 100.611 20.8131C100.653 20.7701 100.698 20.7378 100.747 20.7135L103.755 19.1756C104.003 19.0489 104.305 19.1517 104.429 19.4052C104.553 19.6588 104.452 19.9672 104.204 20.094L102.09 21.1751L104.204 22.2559C104.452 22.3828 104.553 22.6912 104.429 22.9447C104.304 23.1984 104.003 23.3012 103.755 23.1744L101.469 22.0057ZM108.766 16.6132C108.836 16.5756 108.916 16.5544 109 16.5544C109.084 16.5544 109.164 16.5756 109.234 16.6132L112.237 18.1488C112.485 18.2757 112.585 18.5841 112.462 18.8376C112.338 19.0911 112.036 19.1939 111.788 19.0673L109.502 17.8985V20.6616C109.502 20.9451 109.277 21.1751 109 21.1751C108.723 21.1751 108.498 20.9451 108.498 20.6616V17.8985L106.212 19.0673C105.964 19.1939 105.663 19.0912 105.539 18.8376C105.414 18.584 105.515 18.2756 105.763 18.1488L108.766 16.6132ZM109.234 36.0049C109.164 36.0424 109.084 36.0637 109 36.0637C108.916 36.0637 108.836 36.0424 108.766 36.0049L105.763 34.4693C105.515 34.3424 105.414 34.0341 105.538 33.7805C105.663 33.5268 105.964 33.424 106.212 33.5509L108.498 34.7196V31.9565C108.498 31.6729 108.723 31.4431 109 31.4431C109.277 31.4431 109.502 31.6729 109.502 31.9565V34.7196L111.788 33.5509C112.036 33.424 112.337 33.5268 112.462 33.7805C112.585 34.0341 112.485 34.3425 112.237 34.4693L109.234 36.0049ZM109.502 25.5997V28.3628C109.502 28.6462 109.277 28.8762 109 28.8762C108.723 28.8762 108.498 28.6462 108.498 28.3628V25.5997L105.763 24.2013C105.515 24.0746 105.414 23.7662 105.538 23.5125C105.663 23.259 105.964 23.1562 106.212 23.283L109 24.7084L111.788 23.283C112.036 23.1562 112.337 23.259 112.461 23.5125C112.585 23.7662 112.485 24.0746 112.237 24.2013L109.502 25.5997Z" fill="#7C622B"/>
<path d="M150.807 33.2273C150.807 34.7945 150.514 36.1368 149.926 37.2543C149.344 38.367 148.549 39.2192 147.54 39.8111C146.536 40.4029 145.397 40.6989 144.124 40.6989C142.85 40.6989 141.709 40.4029 140.701 39.8111C139.697 39.2145 138.901 38.3598 138.314 37.2472C137.732 36.1297 137.441 34.7898 137.441 33.2273C137.441 31.66 137.732 30.3201 138.314 29.2074C138.901 28.09 139.697 27.2353 140.701 26.6435C141.709 26.0516 142.85 25.7557 144.124 25.7557C145.397 25.7557 146.536 26.0516 147.54 26.6435C148.549 27.2353 149.344 28.09 149.926 29.2074C150.514 30.3201 150.807 31.66 150.807 33.2273ZM148.158 33.2273C148.158 32.1241 147.985 31.1937 147.639 30.4361C147.299 29.6738 146.825 29.0985 146.219 28.7102C145.613 28.3172 144.915 28.1207 144.124 28.1207C143.333 28.1207 142.635 28.3172 142.029 28.7102C141.423 29.0985 140.947 29.6738 140.601 30.4361C140.26 31.1937 140.09 32.1241 140.09 33.2273C140.09 34.3305 140.26 35.2633 140.601 36.0256C140.947 36.7831 141.423 37.3584 142.029 37.7514C142.635 38.1397 143.333 38.3338 144.124 38.3338C144.915 38.3338 145.613 38.1397 146.219 37.7514C146.825 37.3584 147.299 36.7831 147.639 36.0256C147.985 35.2633 148.158 34.3305 148.158 33.2273ZM160.138 35.9119V29.5909H162.709V40.5H160.216V38.5611H160.102C159.856 39.1719 159.451 39.6714 158.888 40.0597C158.329 40.4479 157.64 40.642 156.821 40.642C156.106 40.642 155.474 40.4834 154.925 40.1662C154.38 39.8442 153.954 39.3778 153.646 38.767C153.338 38.1515 153.185 37.4081 153.185 36.5369V29.5909H155.756V36.1392C155.756 36.8305 155.945 37.3797 156.324 37.7869C156.703 38.1941 157.2 38.3977 157.815 38.3977C158.194 38.3977 158.561 38.3054 158.916 38.1207C159.271 37.9361 159.562 37.6615 159.79 37.2969C160.022 36.9276 160.138 36.4659 160.138 35.9119ZM165.353 40.5V29.5909H167.845V31.4091H167.959C168.158 30.7794 168.499 30.294 168.982 29.9531C169.469 29.6075 170.026 29.4347 170.651 29.4347C170.793 29.4347 170.951 29.4418 171.127 29.456C171.307 29.4654 171.456 29.482 171.574 29.5057V31.8707C171.465 31.8329 171.292 31.7997 171.056 31.7713C170.824 31.7382 170.599 31.7216 170.381 31.7216C169.912 31.7216 169.491 31.8234 169.117 32.027C168.747 32.2259 168.456 32.5028 168.243 32.858C168.03 33.2131 167.924 33.6226 167.924 34.0866V40.5H165.353ZM180.303 25.9545L184.088 37.4034H184.237L188.016 25.9545H190.914L185.786 40.5H182.533L177.412 25.9545H180.303ZM196.302 40.7131C195.237 40.7131 194.314 40.4787 193.533 40.0099C192.751 39.5412 192.145 38.8854 191.714 38.0426C191.288 37.1998 191.075 36.215 191.075 35.0881C191.075 33.9612 191.288 32.974 191.714 32.1264C192.145 31.2789 192.751 30.6207 193.533 30.152C194.314 29.6832 195.237 29.4489 196.302 29.4489C197.368 29.4489 198.291 29.6832 199.072 30.152C199.854 30.6207 200.457 31.2789 200.883 32.1264C201.314 32.974 201.53 33.9612 201.53 35.0881C201.53 36.215 201.314 37.1998 200.883 38.0426C200.457 38.8854 199.854 39.5412 199.072 40.0099C198.291 40.4787 197.368 40.7131 196.302 40.7131ZM196.317 38.6534C196.894 38.6534 197.377 38.4948 197.766 38.1776C198.154 37.8556 198.443 37.4247 198.632 36.8849C198.826 36.3452 198.923 35.7438 198.923 35.081C198.923 34.4134 198.826 33.8097 198.632 33.2699C198.443 32.7254 198.154 32.2921 197.766 31.9702C197.377 31.6482 196.894 31.4872 196.317 31.4872C195.725 31.4872 195.232 31.6482 194.839 31.9702C194.451 32.2921 194.16 32.7254 193.966 33.2699C193.776 33.8097 193.682 34.4134 193.682 35.081C193.682 35.7438 193.776 36.3452 193.966 36.8849C194.16 37.4247 194.451 37.8556 194.839 38.1776C195.232 38.4948 195.725 38.6534 196.317 38.6534ZM203.712 40.5V29.5909H206.283V40.5H203.712ZM205.005 28.0426C204.597 28.0426 204.247 27.9077 203.953 27.6378C203.66 27.3632 203.513 27.0341 203.513 26.6506C203.513 26.2623 203.66 25.9332 203.953 25.6634C204.247 25.3887 204.597 25.2514 205.005 25.2514C205.416 25.2514 205.767 25.3887 206.056 25.6634C206.349 25.9332 206.496 26.2623 206.496 26.6506C206.496 27.0341 206.349 27.3632 206.056 27.6378C205.767 27.9077 205.416 28.0426 205.005 28.0426ZM213.685 40.7131C212.596 40.7131 211.661 40.474 210.88 39.9957C210.103 39.5175 209.504 38.857 209.083 38.0142C208.666 37.1667 208.458 36.1913 208.458 35.0881C208.458 33.9801 208.671 33.0024 209.097 32.1548C209.523 31.3026 210.125 30.6397 210.901 30.1662C211.682 29.688 212.606 29.4489 213.671 29.4489C214.556 29.4489 215.34 29.6122 216.022 29.9389C216.708 30.2609 217.255 30.7178 217.663 31.3097C218.07 31.8968 218.302 32.5833 218.359 33.3693H215.901C215.802 32.8437 215.565 32.4058 215.191 32.0554C214.822 31.7003 214.327 31.5227 213.707 31.5227C213.181 31.5227 212.719 31.6648 212.322 31.9489C211.924 32.2282 211.614 32.6307 211.391 33.1562C211.173 33.6818 211.065 34.3116 211.065 35.0455C211.065 35.7888 211.173 36.428 211.391 36.9631C211.609 37.4934 211.914 37.9029 212.307 38.1918C212.705 38.4759 213.172 38.6179 213.707 38.6179C214.085 38.6179 214.424 38.5469 214.722 38.4048C215.025 38.258 215.279 38.0473 215.482 37.7727C215.686 37.4981 215.825 37.1643 215.901 36.7713H218.359C218.297 37.5431 218.07 38.2273 217.677 38.8239C217.284 39.4157 216.749 39.8797 216.072 40.2159C215.395 40.5473 214.599 40.7131 213.685 40.7131ZM225.299 40.7131C224.205 40.7131 223.261 40.4858 222.465 40.0312C221.675 39.572 221.066 38.9233 220.64 38.0852C220.214 37.2424 220.001 36.2505 220.001 35.1094C220.001 33.9872 220.214 33.0024 220.64 32.1548C221.071 31.3026 221.672 30.6397 222.444 30.1662C223.216 29.688 224.123 29.4489 225.164 29.4489C225.837 29.4489 226.471 29.5578 227.068 29.7756C227.669 29.9886 228.199 30.3201 228.659 30.7699C229.123 31.2197 229.487 31.7926 229.752 32.4886C230.018 33.1799 230.15 34.0038 230.15 34.9602V35.7486H221.208V34.0156H227.686C227.681 33.5232 227.574 33.0852 227.366 32.7017C227.158 32.3134 226.866 32.008 226.492 31.7855C226.123 31.563 225.692 31.4517 225.2 31.4517C224.674 31.4517 224.213 31.5795 223.815 31.8352C223.417 32.0862 223.107 32.4176 222.884 32.8295C222.667 33.2367 222.555 33.6842 222.551 34.1719V35.6847C222.551 36.3191 222.667 36.8636 222.899 37.3182C223.131 37.768 223.455 38.1136 223.872 38.3551C224.288 38.5919 224.776 38.7102 225.335 38.7102C225.709 38.7102 226.047 38.6581 226.35 38.554C226.653 38.4451 226.916 38.2865 227.139 38.0781C227.361 37.8698 227.529 37.6117 227.643 37.304L230.044 37.5739C229.892 38.2083 229.603 38.7623 229.177 39.2358C228.756 39.7045 228.216 40.0691 227.558 40.3295C226.9 40.5852 226.147 40.7131 225.299 40.7131Z" fill="#7C622B"/>
</svg>
