<svg width="326" height="62" viewBox="0 0 326 62" fill="none" xmlns="http://www.w3.org/2000/svg">
<rect y="0.5" width="326" height="61" rx="15" fill="#EDC068"/>
<path d="M119.48 7.74414H97.7281C96.0165 7.74414 94.6299 9.13825 94.6299 10.8591V20.4545C94.6299 20.7758 94.8899 21.0426 95.2149 21.0426C95.5344 21.0426 95.7998 20.7812 95.7998 20.4545V11.2566C95.7998 9.966 96.8452 8.91497 98.1289 8.91497H119.876C121.16 8.91497 122.205 9.966 122.205 11.2566V20.4545C122.205 20.7758 122.465 21.0426 122.79 21.0426C123.11 21.0426 123.375 20.7812 123.375 20.4545V10.6957C123.375 9.06745 122.064 7.74959 120.445 7.74959H119.486L119.48 7.74414Z" fill="#7C622B"/>
<path d="M98.5192 54.2556H120.272C121.983 54.2556 123.37 52.8615 123.37 51.1406V41.5398C123.37 41.2185 123.11 40.9517 122.785 40.9517C122.465 40.9517 122.2 41.2131 122.2 41.5398V50.7376C122.2 52.0283 121.154 53.0793 119.871 53.0793H98.1238C96.8401 53.0793 95.7947 52.0283 95.7947 50.7376V41.5398C95.7947 41.2185 95.5347 40.9517 95.2097 40.9517C94.8902 40.9517 94.6248 41.2131 94.6248 41.5398V51.304C94.6248 52.9323 95.9355 54.2501 97.555 54.2501H98.5138L98.5192 54.2556Z" fill="#7C622B"/>
<path d="M103.781 43.564H102.375L104.935 36.2912H106.561L109.125 43.564H107.719L105.777 37.7827H105.72L103.781 43.564ZM103.827 40.7124H107.662V41.7706H103.827V40.7124ZM110.083 43.564V36.2912H112.811C113.369 36.2912 113.838 36.3883 114.217 36.5824C114.598 36.7766 114.886 37.0488 115.08 37.3992C115.276 37.7472 115.374 38.1532 115.374 38.6172C115.374 39.0836 115.275 39.4884 115.076 39.8317C114.88 40.1726 114.59 40.4366 114.206 40.6236C113.823 40.8083 113.352 40.9006 112.793 40.9006H110.85V39.8069H112.615C112.942 39.8069 113.209 39.7619 113.418 39.6719C113.626 39.5796 113.78 39.4458 113.879 39.2706C113.981 39.0931 114.032 38.8753 114.032 38.6172C114.032 38.3592 113.981 38.139 113.879 37.9567C113.778 37.7721 113.623 37.6324 113.414 37.5377C113.206 37.4406 112.937 37.3921 112.608 37.3921H111.401V43.564H110.083ZM113.84 40.2685L115.641 43.564H114.171L112.402 40.2685H113.84Z" fill="#7C622B"/>
<path d="M117.253 18.2135C117.349 18.2611 117.431 18.3404 117.482 18.4454C117.485 18.4504 117.487 18.4554 117.489 18.4605C117.494 18.4715 117.499 18.4829 117.503 18.4942C117.526 18.5571 117.536 18.6218 117.535 18.6854V22.2688C117.535 22.5524 117.31 22.7822 117.033 22.7822C116.756 22.7822 116.531 22.5524 116.531 22.2688V19.5057L114.245 20.6744C113.997 20.8013 113.696 20.6985 113.572 20.4448C113.448 20.1912 113.548 19.8828 113.796 19.756L115.911 18.6751L113.796 17.5941C113.548 17.4672 113.448 17.1588 113.572 16.9053C113.696 16.6517 113.997 16.549 114.245 16.6756L117.253 18.2135ZM117.535 28.9329C117.537 29.0082 117.522 29.085 117.489 29.1578C117.465 29.2124 117.431 29.2624 117.389 29.3053C117.347 29.3482 117.302 29.3805 117.253 29.4048L114.245 30.9426C113.997 31.0694 113.696 30.9666 113.572 30.7131C113.448 30.4594 113.548 30.151 113.796 30.0243L115.911 28.9433L113.796 27.8622C113.548 27.7355 113.448 27.4271 113.572 27.1734C113.696 26.9199 113.997 26.8171 114.245 26.9439L116.531 28.1125V25.3494C116.531 25.066 116.756 24.8361 117.033 24.8361C117.31 24.8361 117.535 25.066 117.535 25.3494L117.535 28.9329ZM102.09 28.9432L104.204 30.0243C104.452 30.151 104.553 30.4594 104.429 30.7131C104.304 30.9666 104.003 31.0694 103.755 30.9425L100.747 29.4048C100.651 29.357 100.569 29.2779 100.518 29.1729C100.516 29.1679 100.513 29.1627 100.511 29.1577C100.506 29.1467 100.501 29.1354 100.497 29.124C100.474 29.0611 100.464 28.9965 100.465 28.9329V25.3493C100.465 25.0659 100.69 24.836 100.967 24.836C101.244 24.836 101.469 25.0659 101.469 25.3493V28.1124L103.755 26.9438C104.003 26.817 104.304 26.9198 104.429 27.1733C104.553 27.427 104.452 27.7354 104.204 27.8621L102.09 28.9432ZM101.469 19.5057V22.2688C101.469 22.5524 101.244 22.7823 100.967 22.7823C100.69 22.7823 100.465 22.5524 100.465 22.2688V18.6854C100.463 18.6099 100.478 18.5333 100.511 18.4606C100.535 18.4059 100.569 18.3559 100.611 18.3131C100.653 18.2701 100.698 18.2378 100.747 18.2135L103.755 16.6756C104.003 16.5489 104.305 16.6517 104.429 16.9052C104.553 17.1588 104.452 17.4672 104.204 17.594L102.09 18.6751L104.204 19.7559C104.452 19.8828 104.553 20.1912 104.429 20.4447C104.304 20.6984 104.003 20.8012 103.755 20.6744L101.469 19.5057ZM108.766 14.1132C108.836 14.0756 108.916 14.0544 109 14.0544C109.084 14.0544 109.164 14.0756 109.234 14.1132L112.237 15.6488C112.485 15.7757 112.585 16.0841 112.462 16.3376C112.338 16.5911 112.036 16.6939 111.788 16.5673L109.502 15.3985V18.1616C109.502 18.4451 109.277 18.6751 109 18.6751C108.723 18.6751 108.498 18.4451 108.498 18.1616V15.3985L106.212 16.5673C105.964 16.6939 105.663 16.5912 105.539 16.3376C105.414 16.084 105.515 15.7756 105.763 15.6488L108.766 14.1132ZM109.234 33.5049C109.164 33.5424 109.084 33.5637 109 33.5637C108.916 33.5637 108.836 33.5424 108.766 33.5049L105.763 31.9693C105.515 31.8424 105.414 31.5341 105.538 31.2805C105.663 31.0268 105.964 30.924 106.212 31.0509L108.498 32.2196V29.4565C108.498 29.1729 108.723 28.9431 109 28.9431C109.277 28.9431 109.502 29.1729 109.502 29.4565V32.2196L111.788 31.0509C112.036 30.924 112.337 31.0268 112.462 31.2805C112.585 31.5341 112.485 31.8425 112.237 31.9693L109.234 33.5049ZM109.502 23.0997V25.8628C109.502 26.1462 109.277 26.3762 109 26.3762C108.723 26.3762 108.498 26.1462 108.498 25.8628V23.0997L105.763 21.7013C105.515 21.5746 105.414 21.2662 105.538 21.0125C105.663 20.759 105.964 20.6562 106.212 20.783L109 22.2084L111.788 20.783C112.036 20.6562 112.337 20.759 112.461 21.0125C112.585 21.2662 112.485 21.5746 112.237 21.7013L109.502 23.0997Z" fill="#7C622B"/>
<path d="M150.807 30.7273C150.807 32.2945 150.514 33.6368 149.926 34.7543C149.344 35.867 148.549 36.7192 147.54 37.3111C146.536 37.9029 145.397 38.1989 144.124 38.1989C142.85 38.1989 141.709 37.9029 140.701 37.3111C139.697 36.7145 138.901 35.8598 138.314 34.7472C137.732 33.6297 137.441 32.2898 137.441 30.7273C137.441 29.16 137.732 27.8201 138.314 26.7074C138.901 25.59 139.697 24.7353 140.701 24.1435C141.709 23.5516 142.85 23.2557 144.124 23.2557C145.397 23.2557 146.536 23.5516 147.54 24.1435C148.549 24.7353 149.344 25.59 149.926 26.7074C150.514 27.8201 150.807 29.16 150.807 30.7273ZM148.158 30.7273C148.158 29.6241 147.985 28.6937 147.639 27.9361C147.299 27.1738 146.825 26.5985 146.219 26.2102C145.613 25.8172 144.915 25.6207 144.124 25.6207C143.333 25.6207 142.635 25.8172 142.029 26.2102C141.423 26.5985 140.947 27.1738 140.601 27.9361C140.26 28.6937 140.09 29.6241 140.09 30.7273C140.09 31.8305 140.26 32.7633 140.601 33.5256C140.947 34.2831 141.423 34.8584 142.029 35.2514C142.635 35.6397 143.333 35.8338 144.124 35.8338C144.915 35.8338 145.613 35.6397 146.219 35.2514C146.825 34.8584 147.299 34.2831 147.639 33.5256C147.985 32.7633 148.158 31.8305 148.158 30.7273ZM160.138 33.4119V27.0909H162.709V38H160.216V36.0611H160.102C159.856 36.6719 159.451 37.1714 158.888 37.5597C158.329 37.9479 157.64 38.142 156.821 38.142C156.106 38.142 155.474 37.9834 154.925 37.6662C154.38 37.3442 153.954 36.8778 153.646 36.267C153.338 35.6515 153.185 34.9081 153.185 34.0369V27.0909H155.756V33.6392C155.756 34.3305 155.945 34.8797 156.324 35.2869C156.703 35.6941 157.2 35.8977 157.815 35.8977C158.194 35.8977 158.561 35.8054 158.916 35.6207C159.271 35.4361 159.562 35.1615 159.79 34.7969C160.022 34.4276 160.138 33.9659 160.138 33.4119ZM165.353 38V27.0909H167.845V28.9091H167.959C168.158 28.2794 168.499 27.794 168.982 27.4531C169.469 27.1075 170.026 26.9347 170.651 26.9347C170.793 26.9347 170.951 26.9418 171.127 26.956C171.307 26.9654 171.456 26.982 171.574 27.0057V29.3707C171.465 29.3329 171.292 29.2997 171.056 29.2713C170.824 29.2382 170.599 29.2216 170.381 29.2216C169.912 29.2216 169.491 29.3234 169.117 29.527C168.747 29.7259 168.456 30.0028 168.243 30.358C168.03 30.7131 167.924 31.1226 167.924 31.5866V38H165.353ZM180.303 23.4545L184.088 34.9034H184.237L188.016 23.4545H190.914L185.786 38H182.533L177.412 23.4545H180.303ZM196.302 38.2131C195.237 38.2131 194.314 37.9787 193.533 37.5099C192.751 37.0412 192.145 36.3854 191.714 35.5426C191.288 34.6998 191.075 33.715 191.075 32.5881C191.075 31.4612 191.288 30.474 191.714 29.6264C192.145 28.7789 192.751 28.1207 193.533 27.652C194.314 27.1832 195.237 26.9489 196.302 26.9489C197.368 26.9489 198.291 27.1832 199.072 27.652C199.854 28.1207 200.457 28.7789 200.883 29.6264C201.314 30.474 201.53 31.4612 201.53 32.5881C201.53 33.715 201.314 34.6998 200.883 35.5426C200.457 36.3854 199.854 37.0412 199.072 37.5099C198.291 37.9787 197.368 38.2131 196.302 38.2131ZM196.317 36.1534C196.894 36.1534 197.377 35.9948 197.766 35.6776C198.154 35.3556 198.443 34.9247 198.632 34.3849C198.826 33.8452 198.923 33.2438 198.923 32.581C198.923 31.9134 198.826 31.3097 198.632 30.7699C198.443 30.2254 198.154 29.7921 197.766 29.4702C197.377 29.1482 196.894 28.9872 196.317 28.9872C195.725 28.9872 195.232 29.1482 194.839 29.4702C194.451 29.7921 194.16 30.2254 193.966 30.7699C193.776 31.3097 193.682 31.9134 193.682 32.581C193.682 33.2438 193.776 33.8452 193.966 34.3849C194.16 34.9247 194.451 35.3556 194.839 35.6776C195.232 35.9948 195.725 36.1534 196.317 36.1534ZM203.712 38V27.0909H206.283V38H203.712ZM205.005 25.5426C204.597 25.5426 204.247 25.4077 203.953 25.1378C203.66 24.8632 203.513 24.5341 203.513 24.1506C203.513 23.7623 203.66 23.4332 203.953 23.1634C204.247 22.8887 204.597 22.7514 205.005 22.7514C205.416 22.7514 205.767 22.8887 206.056 23.1634C206.349 23.4332 206.496 23.7623 206.496 24.1506C206.496 24.5341 206.349 24.8632 206.056 25.1378C205.767 25.4077 205.416 25.5426 205.005 25.5426ZM213.685 38.2131C212.596 38.2131 211.661 37.974 210.88 37.4957C210.103 37.0175 209.504 36.357 209.083 35.5142C208.666 34.6667 208.458 33.6913 208.458 32.5881C208.458 31.4801 208.671 30.5024 209.097 29.6548C209.523 28.8026 210.125 28.1397 210.901 27.6662C211.682 27.188 212.606 26.9489 213.671 26.9489C214.556 26.9489 215.34 27.1122 216.022 27.4389C216.708 27.7609 217.255 28.2178 217.663 28.8097C218.07 29.3968 218.302 30.0833 218.359 30.8693H215.901C215.802 30.3437 215.565 29.9058 215.191 29.5554C214.822 29.2003 214.327 29.0227 213.707 29.0227C213.181 29.0227 212.719 29.1648 212.322 29.4489C211.924 29.7282 211.614 30.1307 211.391 30.6562C211.173 31.1818 211.065 31.8116 211.065 32.5455C211.065 33.2888 211.173 33.928 211.391 34.4631C211.609 34.9934 211.914 35.4029 212.307 35.6918C212.705 35.9759 213.172 36.1179 213.707 36.1179C214.085 36.1179 214.424 36.0469 214.722 35.9048C215.025 35.758 215.279 35.5473 215.482 35.2727C215.686 34.9981 215.825 34.6643 215.901 34.2713H218.359C218.297 35.0431 218.07 35.7273 217.677 36.3239C217.284 36.9157 216.749 37.3797 216.072 37.7159C215.395 38.0473 214.599 38.2131 213.685 38.2131ZM225.299 38.2131C224.205 38.2131 223.261 37.9858 222.465 37.5312C221.675 37.072 221.066 36.4233 220.64 35.5852C220.214 34.7424 220.001 33.7505 220.001 32.6094C220.001 31.4872 220.214 30.5024 220.64 29.6548C221.071 28.8026 221.672 28.1397 222.444 27.6662C223.216 27.188 224.123 26.9489 225.164 26.9489C225.837 26.9489 226.471 27.0578 227.068 27.2756C227.669 27.4886 228.199 27.8201 228.659 28.2699C229.123 28.7197 229.487 29.2926 229.752 29.9886C230.018 30.6799 230.15 31.5038 230.15 32.4602V33.2486H221.208V31.5156H227.686C227.681 31.0232 227.574 30.5852 227.366 30.2017C227.158 29.8134 226.866 29.508 226.492 29.2855C226.123 29.063 225.692 28.9517 225.2 28.9517C224.674 28.9517 224.213 29.0795 223.815 29.3352C223.417 29.5862 223.107 29.9176 222.884 30.3295C222.667 30.7367 222.555 31.1842 222.551 31.6719V33.1847C222.551 33.8191 222.667 34.3636 222.899 34.8182C223.131 35.268 223.455 35.6136 223.872 35.8551C224.288 36.0919 224.776 36.2102 225.335 36.2102C225.709 36.2102 226.047 36.1581 226.35 36.054C226.653 35.9451 226.916 35.7865 227.139 35.5781C227.361 35.3698 227.529 35.1117 227.643 34.804L230.044 35.0739C229.892 35.7083 229.603 36.2623 229.177 36.7358C228.756 37.2045 228.216 37.5691 227.558 37.8295C226.9 38.0852 226.147 38.2131 225.299 38.2131Z" fill="#7C622B"/>
</svg>
