<svg width="251" height="118" viewBox="0 0 251 118" fill="none" xmlns="http://www.w3.org/2000/svg">
<g filter="url(#filter0_d_758_270)">
<rect x="10.5588" y="6.5" width="230" height="60" rx="15" fill="#EDC068" shape-rendering="crispEdges"/>
<path d="M92.4907 36.2273C92.4907 37.7945 92.1971 39.1368 91.61 40.2543C91.0276 41.367 90.2321 42.2192 89.2236 42.8111C88.2198 43.4029 87.0811 43.6989 85.8074 43.6989C84.5337 43.6989 83.3926 43.4029 82.3841 42.8111C81.3803 42.2145 80.5849 41.3598 79.9978 40.2472C79.4154 39.1297 79.1242 37.7898 79.1242 36.2273C79.1242 34.66 79.4154 33.3201 79.9978 32.2074C80.5849 31.09 81.3803 30.2353 82.3841 29.6435C83.3926 29.0516 84.5337 28.7557 85.8074 28.7557C87.0811 28.7557 88.2198 29.0516 89.2236 29.6435C90.2321 30.2353 91.0276 31.09 91.61 32.2074C92.1971 33.3201 92.4907 34.66 92.4907 36.2273ZM89.8415 36.2273C89.8415 35.1241 89.6687 34.1937 89.323 33.4361C88.9821 32.6738 88.5086 32.0985 87.9026 31.7102C87.2965 31.3172 86.5981 31.1207 85.8074 31.1207C85.0167 31.1207 84.3183 31.3172 83.7122 31.7102C83.1062 32.0985 82.6303 32.6738 82.2847 33.4361C81.9438 34.1937 81.7733 35.1241 81.7733 36.2273C81.7733 37.3305 81.9438 38.2633 82.2847 39.0256C82.6303 39.7831 83.1062 40.3584 83.7122 40.7514C84.3183 41.1397 85.0167 41.3338 85.8074 41.3338C86.5981 41.3338 87.2965 41.1397 87.9026 40.7514C88.5086 40.3584 88.9821 39.7831 89.323 39.0256C89.6687 38.2633 89.8415 37.3305 89.8415 36.2273ZM101.821 38.9119V32.5909H104.392V43.5H101.899V41.5611H101.786C101.54 42.1719 101.135 42.6714 100.571 43.0597C100.013 43.4479 99.3236 43.642 98.5045 43.642C97.7895 43.642 97.1574 43.4834 96.6082 43.1662C96.0637 42.8442 95.6376 42.3778 95.3298 41.767C95.022 41.1515 94.8681 40.4081 94.8681 39.5369V32.5909H97.4392V39.1392C97.4392 39.8305 97.6286 40.3797 98.0073 40.7869C98.3861 41.1941 98.8833 41.3977 99.4988 41.3977C99.8776 41.3977 100.245 41.3054 100.6 41.1207C100.955 40.9361 101.246 40.6615 101.473 40.2969C101.705 39.9276 101.821 39.4659 101.821 38.9119ZM107.036 43.5V32.5909H109.529V34.4091H109.643C109.842 33.7794 110.182 33.294 110.665 32.9531C111.153 32.6075 111.709 32.4347 112.334 32.4347C112.476 32.4347 112.635 32.4418 112.81 32.456C112.99 32.4654 113.139 32.482 113.258 32.5057V34.8707C113.149 34.8329 112.976 34.7997 112.739 34.7713C112.507 34.7382 112.282 34.7216 112.065 34.7216C111.596 34.7216 111.174 34.8234 110.8 35.027C110.431 35.2259 110.14 35.5028 109.927 35.858C109.714 36.2131 109.607 36.6226 109.607 37.0866V43.5H107.036ZM121.986 28.9545L125.772 40.4034H125.921L129.699 28.9545H132.597L127.469 43.5H124.217L119.096 28.9545H121.986ZM137.986 43.7131C136.921 43.7131 135.997 43.4787 135.216 43.0099C134.435 42.5412 133.829 41.8854 133.398 41.0426C132.972 40.1998 132.759 39.215 132.759 38.0881C132.759 36.9612 132.972 35.974 133.398 35.1264C133.829 34.2789 134.435 33.6207 135.216 33.152C135.997 32.6832 136.921 32.4489 137.986 32.4489C139.051 32.4489 139.975 32.6832 140.756 33.152C141.537 33.6207 142.141 34.2789 142.567 35.1264C142.998 35.974 143.213 36.9612 143.213 38.0881C143.213 39.215 142.998 40.1998 142.567 41.0426C142.141 41.8854 141.537 42.5412 140.756 43.0099C139.975 43.4787 139.051 43.7131 137.986 43.7131ZM138 41.6534C138.578 41.6534 139.061 41.4948 139.449 41.1776C139.837 40.8556 140.126 40.4247 140.316 39.8849C140.51 39.3452 140.607 38.7438 140.607 38.081C140.607 37.4134 140.51 36.8097 140.316 36.2699C140.126 35.7254 139.837 35.2921 139.449 34.9702C139.061 34.6482 138.578 34.4872 138 34.4872C137.408 34.4872 136.916 34.6482 136.523 34.9702C136.135 35.2921 135.844 35.7254 135.649 36.2699C135.46 36.8097 135.365 37.4134 135.365 38.081C135.365 38.7438 135.46 39.3452 135.649 39.8849C135.844 40.4247 136.135 40.8556 136.523 41.1776C136.916 41.4948 137.408 41.6534 138 41.6534ZM145.395 43.5V32.5909H147.967V43.5H145.395ZM146.688 31.0426C146.281 31.0426 145.931 30.9077 145.637 30.6378C145.343 30.3632 145.197 30.0341 145.197 29.6506C145.197 29.2623 145.343 28.9332 145.637 28.6634C145.931 28.3887 146.281 28.2514 146.688 28.2514C147.1 28.2514 147.45 28.3887 147.739 28.6634C148.033 28.9332 148.18 29.2623 148.18 29.6506C148.18 30.0341 148.033 30.3632 147.739 30.6378C147.45 30.9077 147.1 31.0426 146.688 31.0426ZM155.369 43.7131C154.28 43.7131 153.345 43.474 152.563 42.9957C151.787 42.5175 151.188 41.857 150.767 41.0142C150.35 40.1667 150.142 39.1913 150.142 38.0881C150.142 36.9801 150.355 36.0024 150.781 35.1548C151.207 34.3026 151.808 33.6397 152.585 33.1662C153.366 32.688 154.289 32.4489 155.355 32.4489C156.24 32.4489 157.024 32.6122 157.706 32.9389C158.392 33.2609 158.939 33.7178 159.346 34.3097C159.753 34.8968 159.985 35.5833 160.042 36.3693H157.585C157.485 35.8437 157.249 35.4058 156.875 35.0554C156.505 34.7003 156.01 34.5227 155.39 34.5227C154.865 34.5227 154.403 34.6648 154.005 34.9489C153.607 35.2282 153.297 35.6307 153.075 36.1562C152.857 36.6818 152.748 37.3116 152.748 38.0455C152.748 38.7888 152.857 39.428 153.075 39.9631C153.293 40.4934 153.598 40.9029 153.991 41.1918C154.389 41.4759 154.855 41.6179 155.39 41.6179C155.769 41.6179 156.107 41.5469 156.406 41.4048C156.709 41.258 156.962 41.0473 157.166 40.7727C157.369 40.4981 157.509 40.1643 157.585 39.7713H160.042C159.981 40.5431 159.753 41.2273 159.36 41.8239C158.967 42.4157 158.432 42.8797 157.755 43.2159C157.078 43.5473 156.283 43.7131 155.369 43.7131ZM166.983 43.7131C165.889 43.7131 164.944 43.4858 164.149 43.0312C163.358 42.572 162.75 41.9233 162.324 41.0852C161.898 40.2424 161.685 39.2505 161.685 38.1094C161.685 36.9872 161.898 36.0024 162.324 35.1548C162.755 34.3026 163.356 33.6397 164.128 33.1662C164.9 32.688 165.806 32.4489 166.848 32.4489C167.52 32.4489 168.155 32.5578 168.751 32.7756C169.353 32.9886 169.883 33.3201 170.342 33.7699C170.806 34.2197 171.171 34.7926 171.436 35.4886C171.701 36.1799 171.834 37.0038 171.834 37.9602V38.7486H162.892V37.0156H169.369C169.364 36.5232 169.258 36.0852 169.05 35.7017C168.841 35.3134 168.55 35.008 168.176 34.7855C167.807 34.563 167.376 34.4517 166.883 34.4517C166.358 34.4517 165.896 34.5795 165.498 34.8352C165.101 35.0862 164.791 35.4176 164.568 35.8295C164.35 36.2367 164.239 36.6842 164.234 37.1719V38.6847C164.234 39.3191 164.35 39.8636 164.582 40.3182C164.814 40.768 165.139 41.1136 165.555 41.3551C165.972 41.5919 166.46 41.7102 167.018 41.7102C167.392 41.7102 167.731 41.6581 168.034 41.554C168.337 41.4451 168.6 41.2865 168.822 41.0781C169.045 40.8698 169.213 40.6117 169.327 40.304L171.727 40.5739C171.576 41.2083 171.287 41.7623 170.861 42.2358C170.439 42.7045 169.9 43.0691 169.241 43.3295C168.583 43.5852 167.83 43.7131 166.983 43.7131Z" fill="#7C622B"/>
</g>
<circle cx="125.559" cy="82.5" r="35" fill="#EDC068"/>
<circle cx="126.059" cy="82" r="28.5" fill="url(#paint0_linear_758_270)"/>
<path d="M134.308 63.0864H116.15C114.721 63.0864 113.563 64.2502 113.563 65.6867V73.6966C113.563 73.9648 113.78 74.1876 114.052 74.1876C114.318 74.1876 114.54 73.9694 114.54 73.6966V66.0186C114.54 64.9412 115.413 64.0638 116.484 64.0638H134.638C135.709 64.0638 136.582 64.9412 136.582 66.0186V73.6966C136.582 73.9648 136.799 74.1876 137.07 74.1876C137.337 74.1876 137.559 73.9694 137.559 73.6966V65.5503C137.559 64.1911 136.465 63.091 135.113 63.091H134.312L134.308 63.0864Z" fill="#ECC067"/>
<path d="M116.81 101.913H134.968C136.397 101.913 137.554 100.749 137.554 99.3128V91.2983C137.554 91.0301 137.337 90.8074 137.066 90.8074C136.799 90.8074 136.578 91.0256 136.578 91.2983V98.9764C136.578 100.054 135.705 100.931 134.633 100.931H116.48C115.408 100.931 114.535 100.054 114.535 98.9764V91.2983C114.535 91.0301 114.318 90.8074 114.047 90.8074C113.78 90.8074 113.559 91.0256 113.559 91.2983V99.4492C113.559 100.808 114.653 101.909 116.005 101.909H116.805L116.81 101.913Z" fill="#ECC067"/>
<path d="M119.04 97.0864H117.353L120.425 88.3592H122.377L125.454 97.0864H123.766L121.435 90.1489H121.367L119.04 97.0864ZM119.096 93.6646H123.698V94.9344H119.096V93.6646ZM126.603 97.0864V88.3592H129.876C130.546 88.3592 131.109 88.4756 131.563 88.7086C132.021 88.9415 132.366 89.2682 132.599 89.6887C132.835 90.1063 132.953 90.5935 132.953 91.1503C132.953 91.71 132.833 92.1958 132.595 92.6077C132.359 93.0168 132.011 93.3336 131.551 93.558C131.09 93.7796 130.525 93.8904 129.855 93.8904H127.524V92.5779H129.642C130.034 92.5779 130.355 92.5239 130.605 92.416C130.855 92.3052 131.039 92.1447 131.159 91.9344C131.281 91.7214 131.342 91.46 131.342 91.1503C131.342 90.8407 131.281 90.5765 131.159 90.3577C131.036 90.1361 130.85 89.9685 130.6 89.8549C130.35 89.7384 130.028 89.6802 129.633 89.6802H128.184V97.0864H126.603ZM131.112 93.1319L133.272 97.0864H131.508L129.386 93.1319H131.112Z" fill="#EDC068"/>
<path d="M132.327 72.2842C132.406 72.3208 132.473 72.3817 132.515 72.4625C132.517 72.4663 132.519 72.4702 132.521 72.4741C132.525 72.4826 132.529 72.4913 132.532 72.5C132.551 72.5484 132.56 72.5981 132.559 72.647V75.4022C132.559 75.6202 132.374 75.7969 132.147 75.7969C131.92 75.7969 131.735 75.6202 131.735 75.4022V73.2777L129.861 74.1763C129.657 74.2739 129.41 74.1948 129.308 73.9997C129.206 73.8048 129.289 73.5677 129.492 73.4702L131.226 72.6391L129.492 71.8079C129.289 71.7104 129.206 71.4733 129.308 71.2784C129.41 71.0834 129.657 71.0044 129.861 71.1018L132.327 72.2842ZM132.559 80.526C132.56 80.5839 132.548 80.643 132.521 80.6989C132.501 80.7409 132.473 80.7794 132.439 80.8123C132.404 80.8453 132.367 80.8702 132.327 80.8888L129.861 82.0711C129.657 82.1687 129.41 82.0896 129.308 81.8947C129.206 81.6996 129.289 81.4625 129.492 81.3651L131.226 80.5339L129.492 79.7028C129.289 79.6053 129.206 79.3682 129.308 79.1732C129.41 78.9782 129.657 78.8992 129.861 78.9967L131.735 79.8952V77.7708C131.735 77.5528 131.92 77.3761 132.147 77.3761C132.374 77.3761 132.559 77.5528 132.559 77.7708L132.559 80.526ZM119.891 80.5339L121.625 81.3651C121.829 81.4625 121.911 81.6996 121.81 81.8947C121.708 82.0896 121.46 82.1687 121.257 82.0711L118.79 80.8888C118.712 80.852 118.645 80.7912 118.602 80.7105C118.6 80.7066 118.599 80.7027 118.597 80.6988C118.593 80.6904 118.589 80.6817 118.585 80.6729C118.566 80.6246 118.558 80.5749 118.559 80.526V77.7707C118.559 77.5527 118.743 77.376 118.971 77.376C119.198 77.376 119.382 77.5527 119.382 77.7707V79.8951L121.257 78.9966C121.46 78.8991 121.708 78.9781 121.81 79.1731C121.911 79.3682 121.829 79.6053 121.625 79.7027L119.891 80.5339ZM119.382 73.2777V75.4022C119.382 75.6203 119.198 75.797 118.971 75.797C118.743 75.797 118.559 75.6203 118.559 75.4022V72.647C118.558 72.589 118.57 72.5301 118.597 72.4741C118.617 72.4321 118.645 72.3937 118.679 72.3607C118.713 72.3277 118.75 72.3029 118.79 72.2842L121.257 71.1017C121.46 71.0043 121.708 71.0834 121.81 71.2783C121.911 71.4733 121.829 71.7104 121.625 71.8079L119.891 72.6391L121.625 73.4701C121.829 73.5677 121.911 73.8048 121.81 73.9997C121.708 74.1948 121.46 74.2738 121.257 74.1763L119.382 73.2777ZM125.367 69.1316C125.424 69.1027 125.49 69.0864 125.559 69.0864C125.628 69.0864 125.693 69.1027 125.75 69.1316L128.213 70.3123C128.417 70.4098 128.499 70.6469 128.398 70.8419C128.296 71.0368 128.049 71.1159 127.845 71.0184L125.971 70.1198V72.2443C125.971 72.4622 125.786 72.6391 125.559 72.6391C125.331 72.6391 125.147 72.4622 125.147 72.2443V70.1198L123.272 71.0184C123.069 71.1159 122.822 71.0368 122.72 70.8419C122.618 70.6469 122.701 70.4098 122.904 70.3123L125.367 69.1316ZM125.75 84.0412C125.693 84.07 125.628 84.0864 125.559 84.0864C125.49 84.0864 125.424 84.07 125.367 84.0412L122.904 82.8606C122.701 82.763 122.618 82.5259 122.72 82.331C122.822 82.1359 123.069 82.0569 123.272 82.1544L125.147 83.053V80.9286C125.147 80.7105 125.331 80.5338 125.559 80.5338C125.786 80.5338 125.97 80.7105 125.97 80.9286V83.053L127.845 82.1544C128.049 82.0569 128.296 82.1359 128.398 82.331C128.499 82.5259 128.417 82.7631 128.213 82.8606L125.75 84.0412ZM125.97 76.041V78.1655C125.97 78.3834 125.786 78.5602 125.559 78.5602C125.331 78.5602 125.147 78.3834 125.147 78.1655V76.041L122.904 74.9658C122.701 74.8684 122.618 74.6313 122.72 74.4363C122.822 74.2413 123.069 74.1623 123.272 74.2598L125.559 75.3558L127.845 74.2598C128.049 74.1623 128.296 74.2413 128.398 74.4363C128.499 74.6313 128.417 74.8684 128.213 74.9658L125.97 76.041Z" fill="#EDC068"/>
<defs>
<filter id="filter0_d_758_270" x="0.558838" y="0.5" width="250" height="80" filterUnits="userSpaceOnUse" color-interpolation-filters="sRGB">
<feFlood flood-opacity="0" result="BackgroundImageFix"/>
<feColorMatrix in="SourceAlpha" type="matrix" values="0 0 0 0 0 0 0 0 0 0 0 0 0 0 0 0 0 0 127 0" result="hardAlpha"/>
<feOffset dy="4"/>
<feGaussianBlur stdDeviation="5"/>
<feComposite in2="hardAlpha" operator="out"/>
<feColorMatrix type="matrix" values="0 0 0 0 0 0 0 0 0 0 0 0 0 0 0 0 0 0 0.15 0"/>
<feBlend mode="normal" in2="BackgroundImageFix" result="effect1_dropShadow_758_270"/>
<feBlend mode="normal" in="SourceGraphic" in2="effect1_dropShadow_758_270" result="shape"/>
</filter>
<linearGradient id="paint0_linear_758_270" x1="94.2704" y1="82" x2="158.943" y2="80.9038" gradientUnits="userSpaceOnUse">
<stop stop-color="#3F3106"/>
<stop offset="1" stop-color="#847546"/>
</linearGradient>
</defs>
</svg>
