<svg width="310" height="67" viewBox="0 0 310 67" fill="none" xmlns="http://www.w3.org/2000/svg">
<rect width="310" height="67" rx="15" fill="#EDC068"/>
<path d="M101.98 10.2441H80.2281C78.5165 10.2441 77.1299 11.6382 77.1299 13.3591V22.9545C77.1299 23.2758 77.3899 23.5426 77.7149 23.5426C78.0344 23.5426 78.2998 23.2812 78.2998 22.9545V13.7566C78.2998 12.466 79.3452 11.415 80.6289 11.415H102.376C103.66 11.415 104.705 12.466 104.705 13.7566V22.9545C104.705 23.2758 104.965 23.5426 105.29 23.5426C105.61 23.5426 105.875 23.2812 105.875 22.9545V13.1957C105.875 11.5675 104.564 10.2496 102.945 10.2496H101.986L101.98 10.2441Z" fill="#7C622B"/>
<path d="M81.0192 56.7556H102.772C104.483 56.7556 105.87 55.3615 105.87 53.6406V44.0398C105.87 43.7185 105.61 43.4517 105.285 43.4517C104.965 43.4517 104.7 43.7131 104.7 44.0398V53.2376C104.7 54.5283 103.654 55.5793 102.371 55.5793H80.6238C79.3401 55.5793 78.2947 54.5283 78.2947 53.2376V44.0398C78.2947 43.7185 78.0347 43.4517 77.7097 43.4517C77.3902 43.4517 77.1248 43.7131 77.1248 44.0398V53.804C77.1248 55.4323 78.4355 56.7501 80.055 56.7501H81.0138L81.0192 56.7556Z" fill="#7C622B"/>
<path d="M86.2809 46.064H84.8747L87.435 38.7912H89.0614L91.6254 46.064H90.2191L88.2766 40.2827H88.2198L86.2809 46.064ZM86.3271 43.2124H90.1623V44.2706H86.3271V43.2124ZM92.5833 46.064V38.7912H95.3106C95.8693 38.7912 96.338 38.8883 96.7168 39.0824C97.098 39.2766 97.3856 39.5488 97.5797 39.8992C97.7762 40.2472 97.8745 40.6532 97.8745 41.1172C97.8745 41.5836 97.775 41.9884 97.5762 42.3317C97.3797 42.6726 97.0897 42.9366 96.7062 43.1236C96.3226 43.3083 95.8515 43.4006 95.2928 43.4006H93.3503V42.3069H95.1152C95.4419 42.3069 95.7095 42.2619 95.9178 42.1719C96.1261 42.0796 96.28 41.9458 96.3794 41.7706C96.4812 41.5931 96.5321 41.3753 96.5321 41.1172C96.5321 40.8592 96.4812 40.639 96.3794 40.4567C96.2776 40.2721 96.1226 40.1324 95.9142 40.0377C95.7059 39.9406 95.4372 39.8921 95.1081 39.8921H93.9008V46.064H92.5833ZM96.3404 42.7685L98.1408 46.064H96.6706L94.9022 42.7685H96.3404Z" fill="#7C622B"/>
<path d="M99.7532 20.7135C99.8491 20.7611 99.9309 20.8404 99.9822 20.9454C99.9847 20.9504 99.9871 20.9554 99.9894 20.9605C99.9943 20.9715 99.9988 20.9829 100.003 20.9942C100.026 21.0571 100.036 21.1218 100.035 21.1854V24.7688C100.035 25.0524 99.8104 25.2822 99.5332 25.2822C99.256 25.2822 99.0311 25.0524 99.0311 24.7688V22.0057L96.7453 23.1744C96.4972 23.3013 96.1957 23.1985 96.0718 22.9448C95.9477 22.6912 96.0482 22.3828 96.2962 22.256L98.4106 21.1751L96.2962 20.0941C96.0482 19.9672 95.9477 19.6588 96.0718 19.4053C96.1957 19.1517 96.4972 19.049 96.7453 19.1756L99.7532 20.7135ZM100.035 31.4329C100.037 31.5082 100.022 31.585 99.9894 31.6578C99.9647 31.7124 99.9309 31.7624 99.8892 31.8053C99.847 31.8482 99.8018 31.8805 99.7532 31.9048L96.7453 33.4426C96.4972 33.5694 96.1956 33.4666 96.0717 33.2131C95.9477 32.9594 96.0482 32.651 96.2962 32.5243L98.4106 31.4433L96.2962 30.3622C96.0482 30.2355 95.9477 29.9271 96.0717 29.6734C96.1956 29.4199 96.4972 29.3171 96.7453 29.4439L99.031 30.6125V27.8494C99.031 27.566 99.256 27.3361 99.5332 27.3361C99.8104 27.3361 100.035 27.566 100.035 27.8494L100.035 31.4329ZM84.5897 31.4432L86.7039 32.5243C86.9521 32.651 87.0526 32.9594 86.9285 33.2131C86.8045 33.4666 86.5029 33.5694 86.255 33.4425L83.247 31.9048C83.1512 31.857 83.0694 31.7779 83.0179 31.6729C83.0156 31.6679 83.0132 31.6627 83.0109 31.6577C83.006 31.6467 83.0013 31.6354 82.9971 31.624C82.9739 31.5611 82.9636 31.4965 82.965 31.4329V27.8493C82.965 27.5659 83.1897 27.336 83.4671 27.336C83.7443 27.336 83.969 27.5659 83.969 27.8493V30.6124L86.2549 29.4438C86.5029 29.317 86.8045 29.4198 86.9285 29.6733C87.0526 29.927 86.952 30.2354 86.7039 30.3621L84.5897 31.4432ZM83.969 22.0057V24.7688C83.969 25.0524 83.7443 25.2823 83.4671 25.2823C83.1897 25.2823 82.965 25.0524 82.965 24.7688V21.1854C82.9634 21.1099 82.9781 21.0333 83.0108 20.9606C83.0354 20.9059 83.0693 20.8559 83.111 20.8131C83.1532 20.7701 83.1983 20.7378 83.247 20.7135L86.255 19.1756C86.5029 19.0489 86.8045 19.1517 86.9285 19.4052C87.0526 19.6588 86.9521 19.9672 86.7039 20.094L84.5897 21.1751L86.7039 22.2559C86.9521 22.3828 87.0526 22.6912 86.9285 22.9447C86.8045 23.1984 86.5029 23.3012 86.255 23.1744L83.969 22.0057ZM91.2665 16.6132C91.3362 16.5756 91.4157 16.5544 91.5 16.5544C91.5843 16.5544 91.6639 16.5756 91.7336 16.6132L94.737 18.1488C94.9849 18.2757 95.0855 18.5841 94.9616 18.8376C94.8375 19.0911 94.5359 19.1939 94.288 19.0673L92.0021 17.8985V20.6616C92.0021 20.9451 91.7774 21.1751 91.5 21.1751C91.2228 21.1751 90.998 20.9451 90.998 20.6616V17.8985L88.7121 19.0673C88.4642 19.1939 88.1626 19.0912 88.0386 18.8376C87.9145 18.584 88.015 18.2756 88.2631 18.1488L91.2665 16.6132ZM91.7336 36.0049C91.6638 36.0424 91.5843 36.0637 91.4999 36.0637C91.4157 36.0637 91.3362 36.0424 91.2664 36.0049L88.2631 34.4693C88.015 34.3424 87.9144 34.0341 88.0385 33.7805C88.1625 33.5268 88.4641 33.424 88.7121 33.5509L90.9979 34.7196V31.9565C90.9979 31.6729 91.2227 31.4431 91.4999 31.4431C91.7773 31.4431 92.002 31.6729 92.002 31.9565V34.7196L94.2879 33.5509C94.5359 33.424 94.8375 33.5268 94.9615 33.7805C95.0854 34.0341 94.9849 34.3425 94.7369 34.4693L91.7336 36.0049ZM92.0021 25.5997V28.3628C92.0021 28.6462 91.7773 28.8762 91.4999 28.8762C91.2227 28.8762 90.998 28.6462 90.998 28.3628V25.5997L88.2631 24.2013C88.0149 24.0746 87.9144 23.7662 88.0385 23.5125C88.1625 23.259 88.4641 23.1562 88.7121 23.283L91.4999 24.7084L94.2879 23.283C94.5359 23.1562 94.8375 23.259 94.9615 23.5125C95.0854 23.7662 94.9849 24.0746 94.7369 24.2013L92.0021 25.5997Z" fill="#7C622B"/>
<path d="M136.193 33.2727C136.193 35.1534 135.841 36.7642 135.137 38.1051C134.438 39.4403 133.483 40.4631 132.273 41.1733C131.068 41.8835 129.702 42.2386 128.174 42.2386C126.645 42.2386 125.276 41.8835 124.066 41.1733C122.861 40.4574 121.906 39.4318 121.202 38.0966C120.503 36.7557 120.154 35.1477 120.154 33.2727C120.154 31.392 120.503 29.7841 121.202 28.4489C121.906 27.108 122.861 26.0824 124.066 25.3722C125.276 24.6619 126.645 24.3068 128.174 24.3068C129.702 24.3068 131.068 24.6619 132.273 25.3722C133.483 26.0824 134.438 27.108 135.137 28.4489C135.841 29.7841 136.193 31.392 136.193 33.2727ZM133.014 33.2727C133.014 31.9489 132.807 30.8324 132.392 29.9233C131.983 29.0085 131.415 28.3182 130.688 27.8523C129.96 27.3807 129.122 27.1449 128.174 27.1449C127.225 27.1449 126.387 27.3807 125.659 27.8523C124.932 28.3182 124.361 29.0085 123.946 29.9233C123.537 30.8324 123.333 31.9489 123.333 33.2727C123.333 34.5966 123.537 35.7159 123.946 36.6307C124.361 37.5398 124.932 38.2301 125.659 38.7017C126.387 39.1676 127.225 39.4006 128.174 39.4006C129.122 39.4006 129.96 39.1676 130.688 38.7017C131.415 38.2301 131.983 37.5398 132.392 36.6307C132.807 35.7159 133.014 34.5966 133.014 33.2727ZM147.39 36.4943V28.9091H150.475V42H147.484V39.6733H147.348C147.052 40.4062 146.566 41.0057 145.89 41.4716C145.22 41.9375 144.393 42.1705 143.41 42.1705C142.552 42.1705 141.794 41.9801 141.134 41.5994C140.481 41.2131 139.97 40.6534 139.6 39.9205C139.231 39.1818 139.046 38.2898 139.046 37.2443V28.9091H142.132V36.767C142.132 37.5966 142.359 38.2557 142.813 38.7443C143.268 39.233 143.865 39.4773 144.603 39.4773C145.058 39.4773 145.498 39.3665 145.924 39.1449C146.35 38.9233 146.7 38.5938 146.973 38.1562C147.251 37.7131 147.39 37.1591 147.39 36.4943ZM153.648 42V28.9091H156.639V31.0909H156.776C157.014 30.3352 157.424 29.7528 158.003 29.3438C158.588 28.929 159.256 28.7216 160.006 28.7216C160.176 28.7216 160.367 28.7301 160.577 28.7472C160.793 28.7585 160.972 28.7784 161.114 28.8068V31.6449C160.983 31.5994 160.776 31.5597 160.492 31.5256C160.213 31.4858 159.943 31.4659 159.682 31.4659C159.12 31.4659 158.614 31.5881 158.165 31.8324C157.722 32.071 157.372 32.4034 157.117 32.8295C156.861 33.2557 156.733 33.7472 156.733 34.304V42H153.648ZM171.588 24.5455L176.131 38.2841H176.31L180.844 24.5455H184.321L178.168 42H174.264L168.12 24.5455H171.588ZM190.788 42.2557C189.509 42.2557 188.402 41.9744 187.464 41.4119C186.527 40.8494 185.799 40.0625 185.282 39.0511C184.771 38.0398 184.515 36.858 184.515 35.5057C184.515 34.1534 184.771 32.9687 185.282 31.9517C185.799 30.9347 186.527 30.1449 187.464 29.5824C188.402 29.0199 189.509 28.7386 190.788 28.7386C192.066 28.7386 193.174 29.0199 194.112 29.5824C195.049 30.1449 195.774 30.9347 196.285 31.9517C196.802 32.9687 197.061 34.1534 197.061 35.5057C197.061 36.858 196.802 38.0398 196.285 39.0511C195.774 40.0625 195.049 40.8494 194.112 41.4119C193.174 41.9744 192.066 42.2557 190.788 42.2557ZM190.805 39.7841C191.498 39.7841 192.078 39.5937 192.544 39.2131C193.009 38.8267 193.356 38.3097 193.583 37.6619C193.816 37.0142 193.933 36.2926 193.933 35.4972C193.933 34.696 193.816 33.9716 193.583 33.3239C193.356 32.6705 193.009 32.1506 192.544 31.7642C192.078 31.3778 191.498 31.1847 190.805 31.1847C190.095 31.1847 189.504 31.3778 189.032 31.7642C188.566 32.1506 188.217 32.6705 187.984 33.3239C187.757 33.9716 187.643 34.696 187.643 35.4972C187.643 36.2926 187.757 37.0142 187.984 37.6619C188.217 38.3097 188.566 38.8267 189.032 39.2131C189.504 39.5937 190.095 39.7841 190.805 39.7841ZM199.679 42V28.9091H202.764V42H199.679ZM201.23 27.0511C200.742 27.0511 200.321 26.8892 199.969 26.5653C199.617 26.2358 199.441 25.8409 199.441 25.3807C199.441 24.9148 199.617 24.5199 199.969 24.196C200.321 23.8665 200.742 23.7017 201.23 23.7017C201.725 23.7017 202.145 23.8665 202.492 24.196C202.844 24.5199 203.02 24.9148 203.02 25.3807C203.02 25.8409 202.844 26.2358 202.492 26.5653C202.145 26.8892 201.725 27.0511 201.23 27.0511ZM211.647 42.2557C210.34 42.2557 209.218 41.9688 208.281 41.3949C207.349 40.821 206.63 40.0284 206.125 39.017C205.625 38 205.375 36.8295 205.375 35.5057C205.375 34.1761 205.63 33.0028 206.142 31.9858C206.653 30.9631 207.375 30.1676 208.306 29.5994C209.244 29.0256 210.352 28.7386 211.63 28.7386C212.693 28.7386 213.633 28.9347 214.451 29.3267C215.275 29.7131 215.931 30.2614 216.42 30.9716C216.909 31.6761 217.187 32.5 217.255 33.4432H214.306C214.187 32.8125 213.903 32.2869 213.454 31.8665C213.011 31.4403 212.417 31.2273 211.673 31.2273C211.042 31.2273 210.488 31.3977 210.011 31.7386C209.534 32.0739 209.161 32.5568 208.894 33.1875C208.633 33.8182 208.502 34.5739 208.502 35.4545C208.502 36.3466 208.633 37.1136 208.894 37.7557C209.156 38.392 209.522 38.8835 209.994 39.2301C210.471 39.571 211.031 39.7415 211.673 39.7415C212.127 39.7415 212.534 39.6562 212.892 39.4858C213.255 39.3097 213.559 39.0568 213.804 38.7273C214.048 38.3977 214.215 37.9972 214.306 37.5256H217.255C217.181 38.4517 216.909 39.2727 216.437 39.9886C215.965 40.6989 215.323 41.2557 214.511 41.6591C213.698 42.0568 212.744 42.2557 211.647 42.2557ZM225.584 42.2557C224.272 42.2557 223.138 41.983 222.183 41.4375C221.235 40.8864 220.505 40.108 219.993 39.1023C219.482 38.0909 219.226 36.9006 219.226 35.5312C219.226 34.1847 219.482 33.0028 219.993 31.9858C220.51 30.9631 221.232 30.1676 222.158 29.5994C223.084 29.0256 224.172 28.7386 225.422 28.7386C226.229 28.7386 226.99 28.8693 227.706 29.1307C228.428 29.3864 229.064 29.7841 229.615 30.3239C230.172 30.8636 230.61 31.5511 230.928 32.3864C231.246 33.2159 231.405 34.2045 231.405 35.3523V36.2983H220.675V34.2188H228.448C228.442 33.6278 228.314 33.1023 228.064 32.642C227.814 32.1761 227.465 31.8097 227.016 31.5426C226.573 31.2756 226.056 31.142 225.465 31.142C224.834 31.142 224.28 31.2955 223.803 31.6023C223.326 31.9034 222.953 32.3011 222.686 32.7955C222.425 33.2841 222.291 33.821 222.286 34.4062V36.2216C222.286 36.983 222.425 37.6364 222.703 38.1818C222.982 38.7216 223.371 39.1364 223.871 39.4261C224.371 39.7102 224.956 39.8523 225.627 39.8523C226.076 39.8523 226.482 39.7898 226.845 39.6648C227.209 39.5341 227.524 39.3438 227.791 39.0938C228.058 38.8438 228.26 38.5341 228.397 38.1648L231.277 38.4886C231.095 39.25 230.749 39.9148 230.237 40.483C229.732 41.0455 229.084 41.483 228.294 41.7955C227.505 42.1023 226.601 42.2557 225.584 42.2557Z" fill="#7C622B"/>
</svg>
