<svg width="38" height="54" viewBox="0 0 38 54" fill="none" xmlns="http://www.w3.org/2000/svg">
<g clip-path="url(#clip0_928_830)">
<path d="M34.3679 18.5923C34.3679 16.5176 33.9519 14.4635 33.144 12.5495C32.3362 10.6355 31.1527 8.89978 29.6623 7.4432C28.1718 5.98662 26.4042 4.83824 24.4621 4.06482C22.5201 3.29139 20.4423 2.90833 18.3496 2.93792C9.61711 3.05758 2.58895 10.2945 2.78533 18.9495C2.86197 22.5228 4.1755 25.9614 6.5057 28.6887C10.3033 33.1277 13.2539 38.2151 15.213 43.7019C16.1666 46.3905 17.0536 49.1451 17.874 51.9658C17.9154 52.1088 18.003 52.2344 18.1234 52.3232C18.2439 52.412 18.3904 52.4591 18.5405 52.4573C18.6906 52.4555 18.8359 52.4048 18.9541 52.3131C19.0722 52.2214 19.1568 52.0937 19.1946 51.9497C19.7074 49.9649 20.2593 48.0163 20.8503 46.1041C22.8434 39.7341 26.1454 33.8421 30.5485 28.7994C33.0174 25.9625 34.3732 22.3391 34.3679 18.5923V18.5923Z" fill="#EDC068"/>
<path d="M18.5748 29.2781C24.6245 29.2781 29.5287 24.4163 29.5287 18.4191C29.5287 12.4218 24.6245 7.56012 18.5748 7.56012C12.5251 7.56012 7.62091 12.4218 7.62091 18.4191C7.62091 24.4163 12.5251 29.2781 18.5748 29.2781Z" fill="url(#paint0_linear_928_830)"/>
</g>
<defs>
<linearGradient id="paint0_linear_928_830" x1="7.62091" y1="22.9553" x2="30.5459" y2="15.882" gradientUnits="userSpaceOnUse">
<stop stop-color="#231C06"/>
<stop offset="1" stop-color="#A08A46"/>
</linearGradient>
<clipPath id="clip0_928_830">
<rect width="38" height="53" fill="white" transform="translate(0 0.5)"/>
</clipPath>
</defs>
</svg>
