<svg width="326" height="62" viewBox="0 0 326 62" fill="none" xmlns="http://www.w3.org/2000/svg">
<rect y="0.5" width="326" height="61" rx="15" fill="#EDC068"/>
<path d="M114.48 7.74414H92.7281C91.0165 7.74414 89.6299 9.13825 89.6299 10.8591V20.4545C89.6299 20.7758 89.8899 21.0426 90.2149 21.0426C90.5344 21.0426 90.7998 20.7812 90.7998 20.4545V11.2566C90.7998 9.966 91.8452 8.91497 93.1289 8.91497H114.876C116.16 8.91497 117.205 9.966 117.205 11.2566V20.4545C117.205 20.7758 117.465 21.0426 117.79 21.0426C118.11 21.0426 118.375 20.7812 118.375 20.4545V10.6957C118.375 9.06745 117.064 7.74959 115.445 7.74959H114.486L114.48 7.74414Z" fill="#7C622B"/>
<path d="M93.5192 54.2556H115.272C116.983 54.2556 118.37 52.8615 118.37 51.1406V41.5398C118.37 41.2185 118.11 40.9517 117.785 40.9517C117.465 40.9517 117.2 41.2131 117.2 41.5398V50.7376C117.2 52.0283 116.154 53.0793 114.871 53.0793H93.1238C91.8401 53.0793 90.7947 52.0283 90.7947 50.7376V41.5398C90.7947 41.2185 90.5347 40.9517 90.2097 40.9517C89.8902 40.9517 89.6248 41.2131 89.6248 41.5398V51.304C89.6248 52.9323 90.9355 54.2501 92.555 54.2501H93.5138L93.5192 54.2556Z" fill="#7C622B"/>
<path d="M98.7809 47.2229H97.3747L99.935 39.9502H101.561L104.125 47.2229H102.719L100.777 41.4417H100.72L98.7809 47.2229ZM98.8271 44.3713H102.662V45.4296H98.8271V44.3713ZM105.083 47.2229V39.9502H107.811C108.369 39.9502 108.838 40.0472 109.217 40.2414C109.598 40.4355 109.886 40.7077 110.08 41.0581C110.276 41.4061 110.374 41.8122 110.374 42.2762C110.374 42.7425 110.275 43.1474 110.076 43.4907C109.88 43.8316 109.59 44.0955 109.206 44.2826C108.823 44.4672 108.352 44.5595 107.793 44.5595H105.85V43.4658H107.615C107.942 43.4658 108.209 43.4208 108.418 43.3309C108.626 43.2385 108.78 43.1048 108.879 42.9296C108.981 42.752 109.032 42.5342 109.032 42.2762C109.032 42.0181 108.981 41.7979 108.879 41.6157C108.778 41.431 108.623 41.2913 108.414 41.1966C108.206 41.0996 107.937 41.051 107.608 41.051H106.401V47.2229H105.083ZM108.84 43.9274L110.641 47.2229H109.171L107.402 43.9274H108.84Z" fill="#7C622B"/>
<path d="M112.253 19.8727C112.349 19.9203 112.431 19.9996 112.482 20.1046C112.485 20.1096 112.487 20.1145 112.489 20.1197C112.494 20.1307 112.499 20.1421 112.503 20.1534C112.526 20.2163 112.536 20.2809 112.535 20.3446V23.928C112.535 24.2116 112.31 24.4414 112.033 24.4414C111.756 24.4414 111.531 24.2116 111.531 23.928V21.1649L109.245 22.3336C108.997 22.4605 108.696 22.3577 108.572 22.104C108.448 21.8504 108.548 21.542 108.796 21.4152L110.911 20.3343L108.796 19.2533C108.548 19.1264 108.448 18.818 108.572 18.5645C108.696 18.3109 108.997 18.2081 109.245 18.3348L112.253 19.8727ZM112.535 30.5921C112.537 30.6674 112.522 30.7442 112.489 30.8169C112.465 30.8716 112.431 30.9216 112.389 30.9644C112.347 31.0074 112.302 31.0397 112.253 31.064L109.245 32.6017C108.997 32.7286 108.696 32.6258 108.572 32.3723C108.448 32.1185 108.548 31.8102 108.796 31.6835L110.911 30.6024L108.796 29.5214C108.548 29.3947 108.448 29.0863 108.572 28.8326C108.696 28.5791 108.997 28.4763 109.245 28.6031L111.531 29.7717V27.0086C111.531 26.7252 111.756 26.4953 112.033 26.4953C112.31 26.4953 112.535 26.7252 112.535 27.0086L112.535 30.5921ZM97.0897 30.6024L99.2039 31.6835C99.4521 31.8102 99.5526 32.1185 99.4285 32.3722C99.3045 32.6258 99.0029 32.7286 98.755 32.6017L95.747 31.0639C95.6512 31.0162 95.5694 30.9371 95.5179 30.832C95.5156 30.8271 95.5132 30.8219 95.5109 30.8169C95.506 30.8059 95.5013 30.7946 95.4971 30.7832C95.4739 30.7203 95.4636 30.6557 95.465 30.5921V27.0085C95.465 26.725 95.6897 26.4952 95.9671 26.4952C96.2443 26.4952 96.469 26.725 96.469 27.0085V29.7716L98.7549 28.603C99.0029 28.4761 99.3045 28.5789 99.4285 28.8325C99.5526 29.0862 99.452 29.3946 99.2039 29.5213L97.0897 30.6024ZM96.469 21.1649V23.928C96.469 24.2116 96.2443 24.4414 95.9671 24.4414C95.6897 24.4414 95.465 24.2116 95.465 23.928V20.3446C95.4634 20.2691 95.4781 20.1925 95.5108 20.1197C95.5354 20.0651 95.5693 20.0151 95.611 19.9722C95.6532 19.9293 95.6983 19.897 95.747 19.8727L98.755 18.3348C99.0029 18.2081 99.3045 18.3109 99.4285 18.5644C99.5526 18.818 99.4521 19.1264 99.2039 19.2532L97.0897 20.3342L99.2039 21.4151C99.4521 21.542 99.5526 21.8504 99.4285 22.1039C99.3045 22.3576 99.0029 22.4604 98.755 22.3336L96.469 21.1649ZM103.766 15.7724C103.836 15.7348 103.916 15.7136 104 15.7136C104.084 15.7136 104.164 15.7348 104.234 15.7724L107.237 17.308C107.485 17.4349 107.585 17.7432 107.462 17.9968C107.338 18.2503 107.036 18.3531 106.788 18.2264L104.502 17.0577V19.8208C104.502 20.1042 104.277 20.3342 104 20.3342C103.723 20.3342 103.498 20.1042 103.498 19.8208V17.0577L101.212 18.2264C100.964 18.3531 100.663 18.2503 100.539 17.9968C100.414 17.7432 100.515 17.4348 100.763 17.308L103.766 15.7724ZM104.234 35.1641C104.164 35.2015 104.084 35.2229 104 35.2229C103.916 35.2229 103.836 35.2015 103.766 35.1641L100.763 33.6285C100.515 33.5016 100.414 33.1932 100.538 32.9397C100.663 32.686 100.964 32.5832 101.212 32.71L103.498 33.8788V31.1157C103.498 30.8321 103.723 30.6022 104 30.6022C104.277 30.6022 104.502 30.8321 104.502 31.1157V33.8788L106.788 32.71C107.036 32.5832 107.337 32.686 107.462 32.9397C107.585 33.1932 107.485 33.5017 107.237 33.6285L104.234 35.1641ZM104.502 24.7589V27.522C104.502 27.8054 104.277 28.0354 104 28.0354C103.723 28.0354 103.498 27.8054 103.498 27.522V24.7589L100.763 23.3605C100.515 23.2338 100.414 22.9254 100.538 22.6717C100.663 22.4182 100.964 22.3154 101.212 22.4422L104 23.8676L106.788 22.4422C107.036 22.3154 107.337 22.4182 107.461 22.6717C107.585 22.9254 107.485 23.2338 107.237 23.3605L104.502 24.7589Z" fill="#7C622B"/>
<path d="M147.25 31.5C147.25 33.224 146.927 34.7005 146.281 35.9297C145.641 37.1536 144.766 38.0911 143.656 38.7422C142.552 39.3932 141.3 39.7187 139.899 39.7187C138.498 39.7187 137.242 39.3932 136.133 38.7422C135.029 38.0859 134.154 37.1458 133.508 35.9219C132.867 34.6927 132.547 33.2187 132.547 31.5C132.547 29.776 132.867 28.3021 133.508 27.0781C134.154 25.849 135.029 24.9089 136.133 24.2578C137.242 23.6068 138.498 23.2812 139.899 23.2812C141.3 23.2812 142.552 23.6068 143.656 24.2578C144.766 24.9089 145.641 25.849 146.281 27.0781C146.927 28.3021 147.25 29.776 147.25 31.5ZM144.336 31.5C144.336 30.2865 144.146 29.263 143.766 28.4297C143.391 27.5911 142.87 26.9583 142.203 26.5313C141.537 26.099 140.768 25.8828 139.899 25.8828C139.029 25.8828 138.261 26.099 137.594 26.5313C136.927 26.9583 136.404 27.5911 136.024 28.4297C135.649 29.263 135.461 30.2865 135.461 31.5C135.461 32.7135 135.649 33.7396 136.024 34.5781C136.404 35.4115 136.927 36.0443 137.594 36.4766C138.261 36.9036 139.029 37.1172 139.899 37.1172C140.768 37.1172 141.537 36.9036 142.203 36.4766C142.87 36.0443 143.391 35.4115 143.766 34.5781C144.146 33.7396 144.336 32.7135 144.336 31.5ZM157.514 34.4531V27.5H160.342V39.5H157.6V37.3672H157.475C157.204 38.0391 156.759 38.5885 156.139 39.0156C155.524 39.4427 154.767 39.6563 153.865 39.6563C153.079 39.6563 152.384 39.4818 151.78 39.1328C151.181 38.7786 150.712 38.2656 150.373 37.5938C150.035 36.9167 149.865 36.099 149.865 35.1406V27.5H152.694V34.7031C152.694 35.4635 152.902 36.0677 153.319 36.5156C153.735 36.9635 154.282 37.1875 154.959 37.1875C155.376 37.1875 155.78 37.0859 156.17 36.8828C156.561 36.6797 156.881 36.3776 157.131 35.9766C157.386 35.5703 157.514 35.0625 157.514 34.4531ZM163.25 39.5V27.5H165.992V29.5H166.117C166.336 28.8073 166.711 28.2734 167.242 27.8984C167.779 27.5182 168.391 27.3281 169.078 27.3281C169.235 27.3281 169.409 27.3359 169.602 27.3516C169.8 27.362 169.964 27.3802 170.094 27.4062V30.0078C169.974 29.9661 169.784 29.9297 169.524 29.8984C169.268 29.862 169.021 29.8437 168.781 29.8437C168.266 29.8437 167.802 29.9557 167.391 30.1797C166.985 30.3984 166.664 30.7031 166.43 31.0937C166.196 31.4844 166.078 31.9349 166.078 32.4453V39.5H163.25ZM179.696 23.5L183.86 36.0937H184.024L188.18 23.5H191.367L185.727 39.5H182.149L176.516 23.5H179.696ZM197.295 39.7344C196.123 39.7344 195.108 39.4766 194.248 38.9609C193.389 38.4453 192.722 37.724 192.248 36.7969C191.78 35.8698 191.545 34.7865 191.545 33.5469C191.545 32.3073 191.78 31.2214 192.248 30.2891C192.722 29.3568 193.389 28.6328 194.248 28.1172C195.108 27.6016 196.123 27.3438 197.295 27.3438C198.467 27.3438 199.483 27.6016 200.342 28.1172C201.201 28.6328 201.865 29.3568 202.334 30.2891C202.808 31.2214 203.045 32.3073 203.045 33.5469C203.045 34.7865 202.808 35.8698 202.334 36.7969C201.865 37.724 201.201 38.4453 200.342 38.9609C199.483 39.4766 198.467 39.7344 197.295 39.7344ZM197.311 37.4687C197.946 37.4687 198.477 37.2943 198.905 36.9453C199.332 36.5911 199.649 36.1172 199.858 35.5234C200.071 34.9297 200.178 34.2682 200.178 33.5391C200.178 32.8047 200.071 32.1406 199.858 31.5469C199.649 30.9479 199.332 30.4714 198.905 30.1172C198.477 29.763 197.946 29.5859 197.311 29.5859C196.66 29.5859 196.118 29.763 195.686 30.1172C195.259 30.4714 194.938 30.9479 194.725 31.5469C194.517 32.1406 194.412 32.8047 194.412 33.5391C194.412 34.2682 194.517 34.9297 194.725 35.5234C194.938 36.1172 195.259 36.5911 195.686 36.9453C196.118 37.2943 196.66 37.4687 197.311 37.4687ZM205.446 39.5V27.5H208.274V39.5H205.446ZM206.867 25.7969C206.42 25.7969 206.034 25.6484 205.711 25.3516C205.388 25.0495 205.227 24.6875 205.227 24.2656C205.227 23.8385 205.388 23.4766 205.711 23.1797C206.034 22.8776 206.42 22.7266 206.867 22.7266C207.321 22.7266 207.706 22.8776 208.024 23.1797C208.347 23.4766 208.508 23.8385 208.508 24.2656C208.508 24.6875 208.347 25.0495 208.024 25.3516C207.706 25.6484 207.321 25.7969 206.867 25.7969ZM216.416 39.7344C215.218 39.7344 214.19 39.4714 213.33 38.9453C212.476 38.4193 211.817 37.6927 211.354 36.7656C210.895 35.8333 210.666 34.7604 210.666 33.5469C210.666 32.3281 210.901 31.2526 211.369 30.3203C211.838 29.3828 212.5 28.6536 213.354 28.1328C214.213 27.6068 215.229 27.3438 216.401 27.3438C217.375 27.3438 218.237 27.5234 218.987 27.8828C219.742 28.237 220.343 28.7396 220.791 29.3906C221.239 30.0365 221.494 30.7917 221.557 31.6562H218.854C218.744 31.0781 218.484 30.5964 218.073 30.2109C217.666 29.8203 217.122 29.625 216.44 29.625C215.862 29.625 215.354 29.7812 214.916 30.0937C214.479 30.401 214.138 30.8437 213.893 31.4219C213.653 32 213.533 32.6927 213.533 33.5C213.533 34.3177 213.653 35.0208 213.893 35.6094C214.132 36.1927 214.468 36.6432 214.901 36.9609C215.338 37.2734 215.851 37.4297 216.44 37.4297C216.856 37.4297 217.229 37.3516 217.557 37.1953C217.89 37.0339 218.169 36.8021 218.393 36.5C218.617 36.1979 218.77 35.8307 218.854 35.3984H221.557C221.489 36.2474 221.239 37 220.807 37.6562C220.375 38.3073 219.786 38.8177 219.041 39.1875C218.296 39.5521 217.421 39.7344 216.416 39.7344ZM229.192 39.7344C227.989 39.7344 226.949 39.4844 226.074 38.9844C225.205 38.4792 224.535 37.7656 224.067 36.8437C223.598 35.9167 223.364 34.8255 223.364 33.5703C223.364 32.3359 223.598 31.2526 224.067 30.3203C224.541 29.3828 225.202 28.6536 226.051 28.1328C226.9 27.6068 227.897 27.3438 229.043 27.3438C229.783 27.3438 230.481 27.4635 231.137 27.7031C231.798 27.9375 232.382 28.3021 232.887 28.7969C233.397 29.2917 233.798 29.9219 234.09 30.6875C234.382 31.4479 234.528 32.3542 234.528 33.4062V34.2734H224.692V32.3672H231.817C231.811 31.8255 231.694 31.3437 231.465 30.9219C231.236 30.4948 230.916 30.1589 230.504 29.9141C230.098 29.6693 229.624 29.5469 229.082 29.5469C228.504 29.5469 227.996 29.6875 227.559 29.9687C227.121 30.2448 226.78 30.6094 226.535 31.0625C226.296 31.5104 226.173 32.0026 226.168 32.5391V34.2031C226.168 34.901 226.296 35.5 226.551 36C226.806 36.4948 227.163 36.875 227.621 37.1406C228.08 37.401 228.616 37.5312 229.231 37.5312C229.642 37.5312 230.015 37.474 230.348 37.3594C230.681 37.2396 230.97 37.0651 231.215 36.8359C231.46 36.6068 231.645 36.3229 231.77 35.9844L234.41 36.2812C234.244 36.9792 233.926 37.5885 233.457 38.1094C232.994 38.625 232.4 39.026 231.676 39.3125C230.952 39.5937 230.124 39.7344 229.192 39.7344Z" fill="#7C622B"/>
</svg>
